<?xml version="1.0" standalone="no"?>
<!DOCTYPE svg PUBLIC "-//W3C//DTD SVG 1.1//EN" "http://www.w3.org/Graphics/SVG/1.1/DTD/svg11.dtd" >
<svg>
<metadata>
Created by FontForge 20090914 at Wed Oct 19 02:01:34 2011
 By www-data
(c) by Abolfazl Seilsepour - +98 912 591 3420  -  seilsepor@yahoo.com
</metadata>
<defs>
<font id="FarYagut" horiz-adv-x="0" >
  <font-face 
    font-family="Far.Yagut"
    font-weight="400"
    font-stretch="normal"
    units-per-em="2048"
    panose-1="0 0 4 0 0 0 0 0 0 0"
    ascent="1638"
    descent="-410"
    bbox="-185 -1323 2278 2191"
    underline-thickness="60"
    underline-position="-870"
    unicode-range="U+0020-U+FEFC"
  />
<missing-glyph horiz-adv-x="1024" 
d="M128 0v1288h768v-1288h-768zM256 128h512v1032h-512v-1032z" />
    <glyph glyph-name="uE818" unicode="&#x651;&#x64b;" 
d="M428 1787c3.33301 -25.333 5.00098 -52.666 5.00098 -81.999c0 -140.667 -33 -211 -99 -211c-35.333 0 -67 10 -95 30c-38 -76.667 -77.333 -115 -118 -115c-27.333 0 -50.333 15.333 -69 46c-14.667 24 -22 47.667 -22 71c0 40 5 75 15 105l60 27
c-1.33301 -14.667 -2 -28.334 -2 -41.001c0 -51.333 11 -77 33 -77c49.333 0 72.666 51 69.999 153l55 23c6.66699 -68.667 24.667 -103 54 -103c35.333 0 53 48 53 144zM386.001 1837l-343 -179v84l343 182v-87zM386.001 2025l-343 -179v84l343 182v-87z" />
    <glyph glyph-name="uFC5E" unicode="&#x651;&#x64c;" arabic-form="isolated" 
d="M443 1790c3.33301 -25.333 5.00098 -52.666 5.00098 -81.999c0 -140.667 -33 -211 -99 -211c-35.333 0 -67 10 -95 30c-38 -76.667 -77.333 -115 -118 -115c-27.333 0 -50.333 15.333 -69 46c-14.667 24 -22 47.667 -22 71c0 40 5 75 15 105l60 27
c-1.33301 -14.667 -2 -28.334 -2 -41.001c0 -51.333 11 -77 33 -77c49.333 0 72.666 51 69.999 153l55 23c6.66699 -68.667 24.667 -103 54 -103c35.333 0 53 48 53 144zM435.001 1889l-7.99609 -93c-18.667 2.66699 -48.334 10.334 -89.001 23.001
c-61.333 -66.667 -161.333 -120 -300 -160l-32 57c19.333 8 47 26 83 54c12 15.333 18 31.666 18 48.999c0 21.333 -9.33301 32 -28 32c-6.66699 0 -17.334 -3.33301 -32.001 -10s-23.334 -10 -26.001 -10c-4.66699 0 -9.33398 6.33301 -14.001 19s-6 21.334 -4 26.001
c4.66699 10 21 20.833 49 32.5s48.333 17.5 61 17.5c36.667 0 55 -24.333 55 -73c0 -22.667 -6.66699 -44.334 -20 -65.001c44.667 16 81 39.667 109 71c-38.667 36.667 -58 76 -58 118c0 34 17.833 71.167 53.5 111.5s70.167 60.5 103.5 60.5c51.333 0 77 -28.667 77 -86
c0 -68.667 -19 -122 -57 -160c12 -6 31.667 -10.667 59 -14zM371.005 2009c0 36 -13.999 54 -41.999 54c-12.667 0 -25.667 -8.83301 -39 -26.5s-20 -33.5 -20 -47.5c0 -12 4.66699 -24.667 14 -38c10 -15.333 20.333 -23 31 -23c17.333 0 31.666 9.66699 42.999 29
c8.66699 16 13 33.333 13 52z" />
    <glyph glyph-name="uFC5F" unicode="&#x651;&#x64d;" arabic-form="isolated" 
d="M428 2191c3.33301 -25.333 5.00098 -52.666 5.00098 -81.999c0 -140.667 -33 -211 -99 -211c-35.333 0 -67 10 -95 30c-38 -76.667 -77.333 -115 -118 -115c-28 0 -51 15.333 -69 46c-14.667 24 -22 47.667 -22 71c0 40 5 75 15 105l60 27
c-1.33301 -14.667 -2 -28.334 -2 -41.001c0 -51.333 11 -77 33 -77c49.333 0 72.666 51 69.999 153l55 23c6.66699 -68.667 24.667 -103 54 -103c35.333 0 53 48 53 144zM451.001 1667l-343 -180v85l343 182v-87zM451.001 1855l-343 -179v84l343 182v-87z" />
    <glyph glyph-name="uFC60" unicode="&#x651;&#x64e;" arabic-form="isolated" 
d="M458 1738c3.33301 -25.333 5.00098 -52.666 5.00098 -81.999c0 -140.667 -33 -211 -99 -211c-35.333 0 -67 10 -95 30c-38 -76.667 -77.333 -115 -118 -115c-28 0 -51 15.333 -69 46c-14.667 24 -22 47.667 -22 71c0 40 5 75 15 105l60 27
c-1.33301 -14.667 -2 -28.334 -2 -41.001c0 -51.333 11 -77 33 -77c49.333 0 72.666 51 69.999 153l55 23c6.66699 -68.667 24.667 -103 54 -103c35.333 0 53 48 53 144zM407.001 1789l-343 -179v84l343 182v-87z" />
    <glyph glyph-name="uFC61" unicode="&#x651;&#x64f;" arabic-form="isolated" 
d="M477 1747c3.33301 -25.333 5.00098 -52.667 5.00098 -82c0 -140.667 -33 -211 -99 -211c-35.333 0 -67 10 -95 30c-38 -76.667 -77.333 -115 -118 -115c-27.333 0 -50.333 15.333 -69 46c-14.667 24.667 -22 48.334 -22 71.001c0 40 5 75 15 105l60 27
c-1.33301 -14.667 -2 -28.334 -2 -41.001c0 -51.333 11 -77 33 -77c49.333 0 72.666 51 69.999 153l55 23c6.66699 -68.667 24.667 -103 54 -103c35.333 0 53 48 53 144zM434.001 2039c0 -62 -26 -121 -78 -177c18.667 -10.667 43.667 -16 75 -16l-12 -113
c-30.667 6 -72.667 18 -126 36c-70.667 -76 -147.667 -128.667 -231 -158l-47 53c58.667 23.333 127 74 205 152c-40 39.333 -60 82 -60 128c0 38 19.333 79.167 58 123.5s77 66.5 115 66.5c67.333 0 101 -31.667 101 -95zM350.001 1994c0 42 -15.667 63 -47 63
c-14.667 0 -29 -11.333 -43 -34c-12.667 -20 -19 -37.667 -19 -53c0 -16 4.66699 -31.333 14 -46c11.333 -16.667 24.333 -25 39 -25c13.333 0 26.333 12.667 39 38c11.333 22.667 17 41.667 17 57z" />
    <glyph glyph-name="uFC62" unicode="&#x651;&#x650;" arabic-form="isolated" 
d="M448 1955c3.33301 -25.333 5.00098 -52.666 5.00098 -81.999c0 -140.667 -33 -211 -99 -211c-35.333 0 -67 10 -95 30c-38 -76.667 -77.333 -115 -118 -115c-28 0 -51 15.333 -69 46c-14.667 24 -22 47.667 -22 71c0 40 5 75 15 105l60 27
c-1.33301 -14.667 -2 -28.334 -2 -41.001c0 -51.333 11 -77 33 -77c49.333 0 72.666 51 69.999 153l55 23c6.66699 -68.667 24.667 -103 54 -103c35.333 0 53 48 53 144zM476.001 1610l-343 -180v85l343 182v-87z" />
    <glyph glyph-name="uFDF2" unicode="&#xfedf;&#xfee0;&#xfeea;" horiz-adv-x="1221" arabic-form="isolated" 
d="M762 1206c0 -70.667 -8.66797 -106 -26.001 -106c-3.33301 4 -7.33301 20.333 -12 49c-7.33301 40 -19.666 72.333 -36.999 97l55 52c13.333 -22 20 -52.667 20 -92zM971.999 972c0 -36.667 -9.66602 -67.3301 -28.999 -91.9971c-20.667 -26.667 -49 -40 -85 -40
c-29.333 0 -58.666 10.667 -87.999 32c-40 -42.667 -76.667 -64 -110 -64c-28 0 -50.667 10.167 -68 30.5s-26 44.833 -26 73.5c0 43.333 17.333 77.333 52 102c6.66699 4.66699 13.334 7 20.001 7c8.66699 0 13 -3.66699 13 -11c0 -5.33301 -3 -12 -9 -20
c-24 -33.333 -32 -57.333 -24 -72s25 -22 51 -22c34.667 0 59 11.333 73 34c7.33301 11.333 11.666 33.666 12.999 66.999c1.33301 24.667 7.66602 37 18.999 37c2 0 10.333 -19.333 25 -58s32.334 -58 53.001 -58c45.333 0 68 13 68 39c0 8 -1.33301 16.333 -4 25
c-10.667 35.333 -7.33398 54.666 9.99902 57.999c13.333 2.66699 24.666 -5.33301 33.999 -24c8 -14.667 12 -29.334 12 -44.001zM1322 276.004c0 -184 -49.335 -276.003 -148.002 -276.003c-87.333 0 -150.333 20 -189 60c-23.333 24 -51.666 80 -84.999 168
c-9.33301 -78.667 -19.666 -129.667 -30.999 -153c-27.333 -56.667 -79 -85 -155 -85c-65.333 0 -112.333 12.333 -141 37c-24.667 21.333 -47.667 64.333 -69 129c-38.667 -69.333 -85.334 -113.333 -140.001 -132c-43.333 8 -82.333 21 -117 39c-44 22.667 -66 46 -66 70
c0 15.333 10 48.333 30 99c20 48 35.333 80 46 96c21.333 22 80 46 176 72l-15 60l71 132c26 -41.333 50.333 -118.666 73 -231.999c17.333 -86 28.333 -133.667 33 -143c19.333 -38 57.666 -57 114.999 -57c94 0 141 26 141 78c0 8.66699 -1 17.334 -3 26.001l-80 348
l80 146c20.667 -24.667 40.667 -78.667 60 -162c8.66699 -39.333 26.334 -114.666 53.001 -225.999c18.667 -76 43.334 -129.333 74.001 -160c24 -24 61.667 -36 113 -36c34.667 0 52 12 52 36c0 4.66699 -0.333008 9 -1 13c-20 112 -60.333 257.667 -121 437l98 194
c22.667 -39.333 52.667 -133.5 90 -282.5s56 -247.5 56 -295.5zM489.998 206.001l-33 118c-40 -42.667 -84.333 -67 -133 -73c9.33301 -43.333 44.333 -65 105 -65c22.667 0 43 6.66699 61 20z" />
    <glyph glyph-name="uFEF5" unicode="&#xfedf;&#xfe82;" horiz-adv-x="1160" arabic-form="isolated" 
d="M1162 1020l-66.001 -152.002l-35 28c-15.333 -193.333 -60.333 -358 -135 -494c50 -88.667 75 -173.334 75 -254.001c0 -28.667 -3.33301 -61 -10 -97c-9.33301 -50.667 -22 -78.667 -38 -84c-87.333 -28 -197.666 -42 -330.999 -42c-36.667 0 -75 1 -115 3
c3.33301 38.667 9 99.334 17 182.001c110.667 64.667 211.334 156.667 302.001 276c-121.333 163.333 -244 302 -368 416c-26.667 -49.333 -46 -74 -58 -74c-16 0 -50 28.667 -102 86c-57.333 63.333 -86 116 -86 158c0 26 5.66699 55.667 17 89
c15.333 44.667 34.333 67 57 67c41.333 0 114 -52.667 218 -158c76.667 -77.333 140 -148.666 190 -213.999c70.667 -92 134 -184.667 190 -278c47.333 108 71 225.333 71 352c0 90.667 -11.667 191.334 -35 302.001c33.333 30 64.666 67.333 93.999 112
c26 -97.333 75.333 -172 148 -224zM913.999 119.998c3.33301 15.333 5.00098 30.667 5.00098 46c0 49.333 -19 100 -57 152c-52.667 -80 -112.667 -147 -180 -201c46 -4.66699 87 -7 123 -7c43.333 0 79.666 3.33301 108.999 10zM664 1413
c-30 -91.333 -73.6709 -137.001 -131.004 -137.001c-35.333 0 -87.333 7.5 -156 22.5s-120.667 22.5 -156 22.5c-27.333 0 -58.666 -16.667 -93.999 -50c-7.33301 -6.66699 -13.333 -8.66699 -18 -6c-4.66699 3.33301 -5.66699 10.666 -3 21.999
c6 28.667 19.333 55.334 40 80.001c30.667 37.333 69.334 56 116.001 56c28.667 0 70.834 -7.5 126.501 -22.5s97.834 -22.5 126.501 -22.5c58 0 101.333 17.333 130 52c4 4.66699 8.66699 7.33398 14 8.00098c5.33301 0 8 -3.66699 8 -11c0 -3.33301 -1 -8 -3 -14z" />
    <glyph glyph-name="uFEF6" unicode="&#xfee0;&#xfe82;" horiz-adv-x="1212" arabic-form="final" 
d="M1242 1l-60 -0.000976562c-79.333 0 -137.333 40.667 -174 122c-23.333 52 -44.333 144.333 -63 277c-112.667 -255.333 -211.667 -407.666 -297 -456.999c-18.667 -10.667 -74 -21.667 -166 -33c-104.667 -12.667 -202.667 -18.667 -294 -18c-58 0.666992 -87 6 -87 16
c0 10.667 27 22.667 81 36c110.667 27.333 192.667 51.333 246 72c84 32 160.333 76.667 229 134c10 42.667 15 86 15 130c0 209.333 -91.333 404 -274 584c-30 -42 -48.667 -63 -56 -63c-12.667 0 -42 29.667 -88 89c-50.667 65.333 -76 119.333 -76 162
c0 26.667 7.33301 57.667 22 93c17.333 42 37.333 63 60 63c42.667 0 114.334 -62.667 215.001 -188c84 -104.667 142.667 -188.667 176 -252c66.667 -127.333 100 -251 100 -371c0 -64 -9.33301 -124.333 -28 -181c69.333 66.667 117.333 140 144 220
c22.667 68 34 157.333 34 268c0 41.333 -2 106 -6 194c-4.66699 100.667 -7.66699 178 -9 232l94 108c10.667 12 17.667 18 21 18s5.33301 -8 6 -24l16 -494c7.33301 -218 22 -375 44 -471c15.333 -66 52.666 -99 111.999 -99h63v-167zM654 1453
c-30 -91.333 -73.6709 -137.001 -131.004 -137.001c-35.333 0 -87.333 7.5 -156 22.5s-120.667 22.5 -156 22.5c-27.333 0 -58.666 -16.667 -93.999 -50c-7.33301 -6.66699 -13.333 -8.66699 -18 -6c-4.66699 3.33301 -5.66699 10.666 -3 21.999
c6 28.667 19.333 55.334 40 80.001c30.667 37.333 69.334 56 116.001 56c28.667 0 70.834 -7.5 126.501 -22.5s97.834 -22.5 126.501 -22.5c58 0 101.333 17.333 130 52c4 4.66699 8.66699 7.33398 14 8.00098c5.33301 0 8 -3.66699 8 -11c0 -3.33301 -1 -8 -3 -14z" />
    <glyph glyph-name="uFEF7" unicode="&#xfedf;&#xfe84;" horiz-adv-x="1052" arabic-form="isolated" 
d="M1052 1020l-66.001 -152.002l-35 28c-15.333 -193.333 -60.333 -358 -135 -494c50 -88.667 75 -173.334 75 -254.001c0 -28.667 -3.33301 -61 -10 -97c-9.33301 -50.667 -22 -78.667 -38 -84c-87.333 -28 -197.666 -42 -330.999 -42c-36.667 0 -75 1 -115 3
c3.33301 38.667 9 99.334 17 182.001c110.667 64.667 211.334 156.667 302.001 276c-121.333 163.333 -244 302 -368 416c-26.667 -49.333 -46 -74 -58 -74c-16 0 -50 28.667 -102 86c-57.333 63.333 -86 116 -86 158c0 26 5.66699 55.667 17 89
c15.333 44.667 34.333 67 57 67c41.333 0 114 -52.667 218 -158c76.667 -77.333 140 -148.666 190 -213.999c70.667 -92 134 -184.667 190 -278c47.333 108 71 225.333 71 352c0 90.667 -11.667 191.334 -35 302.001c33.333 30 64.666 67.333 93.999 112
c26 -97.333 75.333 -172 148 -224zM803.999 119.998c3.33301 15.333 5.00098 30.667 5.00098 46c0 49.333 -19 100 -57 152c-52.667 -80 -112.667 -147 -180 -201c46 -4.66699 87 -7 123 -7c43.333 0 79.666 3.33301 108.999 10zM447 1499
c-7.33301 -33.333 -18.999 -69.668 -34.999 -109.001c-90.667 -20 -176.334 -56.333 -257.001 -109c-29.333 -19.333 -46.333 -29 -51 -29c-25.333 0 -35.666 8.33301 -30.999 25c15.333 32.667 52.333 71 111 115c-57.333 58.667 -89.333 103.334 -96 134.001
c22 58.667 43 98.334 63 119.001c28 28.667 69 43 123 43c34.667 0 63 -4 85 -12v-104c-36 17.333 -71.667 26 -107 26c-32 0 -60.667 -7.33301 -86 -22c10.667 -23.333 31 -47.333 61 -72s58 -41.334 84 -50.001c17.333 6.66699 62.666 21.667 135.999 45z" />
    <glyph glyph-name="uFEF8" unicode="&#xfee0;&#xfe84;" horiz-adv-x="1212" arabic-form="final" 
d="M1242 1l-60 -0.000976562c-79.333 0 -137.333 40.667 -174 122c-23.333 52 -44.333 144.333 -63 277c-112.667 -255.333 -211.667 -407.666 -297 -456.999c-18.667 -10.667 -74 -21.667 -166 -33c-104.667 -12.667 -202.667 -18.667 -294 -18c-58 0.666992 -87 6 -87 16
c0 10.667 27 22.667 81 36c110.667 27.333 192.667 51.333 246 72c84 32 160.333 76.667 229 134c10 42.667 15 86 15 130c0 209.333 -91.333 404 -274 584c-30 -42 -48.667 -63 -56 -63c-12.667 0 -42 29.667 -88 89c-50.667 65.333 -76 119.333 -76 162
c0 26.667 7.33301 57.667 22 93c17.333 42 37.333 63 60 63c42.667 0 114.334 -62.667 215.001 -188c84 -104.667 142.667 -188.667 176 -252c66.667 -127.333 100 -251 100 -371c0 -64 -9.33301 -124.333 -28 -181c69.333 66.667 117.333 140 144 220
c22.667 68 34 157.333 34 268c0 41.333 -2 106 -6 194c-4.66699 100.667 -7.66699 178 -9 232l94 108c10.667 12 17.667 18 21 18s5.33301 -8 6 -24l16 -494c7.33301 -218 22 -375 44 -471c15.333 -66 52.666 -99 111.999 -99h63v-167zM447 1499
c-7.33301 -33.333 -18.999 -69.668 -34.999 -109.001c-90.667 -20 -176.334 -56.333 -257.001 -109c-29.333 -19.333 -46.333 -29 -51 -29c-25.333 0 -35.666 8.33301 -30.999 25c15.333 32.667 52.333 71 111 115c-57.333 58.667 -89.333 103.334 -96 134.001
c22 58.667 43 98.334 63 119.001c28 28.667 69 43 123 43c34.667 0 63 -4 85 -12v-104c-36 17.333 -71.667 26 -107 26c-32 0 -60.667 -7.33301 -86 -22c10.667 -23.333 31 -47.333 61 -72s58 -41.334 84 -50.001c17.333 6.66699 62.666 21.667 135.999 45z" />
    <glyph glyph-name="uFEF9" unicode="&#xfedf;&#xfe88;" horiz-adv-x="1052" arabic-form="isolated" 
d="M1052 1020l-66.001 -152.002l-35 28c-15.333 -193.333 -60.333 -358 -135 -494c50 -88.667 75 -173.334 75 -254.001c0 -28.667 -3.33301 -61 -10 -97c-9.33301 -50.667 -22 -78.667 -38 -84c-87.333 -28 -197.666 -42 -330.999 -42c-36.667 0 -75 1 -115 3
c3.33301 38.667 9 99.334 17 182.001c110.667 64.667 211.334 156.667 302.001 276c-121.333 163.333 -244 302 -368 416c-26.667 -49.333 -46 -74 -58 -74c-16 0 -50 28.667 -102 86c-57.333 63.333 -86 116 -86 158c0 26 5.66699 55.667 17 89
c15.333 44.667 34.333 67 57 67c41.333 0 114 -52.667 218 -158c76.667 -77.333 140 -148.666 190 -213.999c70.667 -92 134 -184.667 190 -278c47.333 108 71 225.333 71 352c0 90.667 -11.667 191.334 -35 302.001c33.333 30 64.666 67.333 93.999 112
c26 -97.333 75.333 -172 148 -224zM803.999 119.998c3.33301 15.333 5.00098 30.667 5.00098 46c0 49.333 -19 100 -57 152c-52.667 -80 -112.667 -147 -180 -201c46 -4.66699 87 -7 123 -7c43.333 0 79.666 3.33301 108.999 10zM697 -401.001
c-7.33301 -33.333 -18.999 -69.668 -34.999 -109.001c-90.667 -20 -176.334 -56.333 -257.001 -109c-29.333 -19.333 -46.333 -29 -51 -29c-25.333 0 -35.666 8.33301 -30.999 25c15.333 32.667 52.333 71 111 115c-57.333 58.667 -89.333 103.334 -96 134.001
c22 58.667 43 98.334 63 119.001c28 28.667 69 43 123 43c34.667 0 63 -4 85 -12v-104c-36 17.333 -71.667 26 -107 26c-32 0 -60.667 -7.33301 -86 -22c10.667 -23.333 31 -47.333 61 -72s58 -41.334 84 -50.001c17.333 6.66699 62.666 21.667 135.999 45z" />
    <glyph glyph-name="uFEFA" unicode="&#xfee0;&#xfe88;" horiz-adv-x="1212" arabic-form="final" 
d="M1242 1l-60 -0.000976562c-79.333 0 -137.333 40.667 -174 122c-23.333 52 -44.333 144.333 -63 277c-112.667 -255.333 -211.667 -407.666 -297 -456.999c-18.667 -10.667 -74 -21.667 -166 -33c-104.667 -12.667 -202.667 -18.667 -294 -18c-58 0.666992 -87 6 -87 16
c0 10.667 27 22.667 81 36c110.667 27.333 192.667 51.333 246 72c84 32 160.333 76.667 229 134c10 42.667 15 86 15 130c0 209.333 -91.333 404 -274 584c-30 -42 -48.667 -63 -56 -63c-12.667 0 -42 29.667 -88 89c-50.667 65.333 -76 119.333 -76 162
c0 26.667 7.33301 57.667 22 93c17.333 42 37.333 63 60 63c42.667 0 114.334 -62.667 215.001 -188c84 -104.667 142.667 -188.667 176 -252c66.667 -127.333 100 -251 100 -371c0 -64 -9.33301 -124.333 -28 -181c69.333 66.667 117.333 140 144 220
c22.667 68 34 157.333 34 268c0 41.333 -2 106 -6 194c-4.66699 100.667 -7.66699 178 -9 232l94 108c10.667 12 17.667 18 21 18s5.33301 -8 6 -24l16 -494c7.33301 -218 22 -375 44 -471c15.333 -66 52.666 -99 111.999 -99h63v-167zM617 -401.001
c-7.33301 -33.333 -18.999 -69.668 -34.999 -109.001c-90.667 -20 -176.334 -56.333 -257.001 -109c-29.333 -19.333 -46.333 -29 -51 -29c-25.333 0 -35.666 8.33301 -30.999 25c15.333 32.667 52.333 71 111 115c-57.333 58.667 -89.333 103.334 -96 134.001
c22 58.667 43 98.334 63 119.001c28 28.667 69 43 123 43c34.667 0 63 -4 85 -12v-104c-36 17.333 -71.667 26 -107 26c-32 0 -60.667 -7.33301 -86 -22c10.667 -23.333 31 -47.333 61 -72s58 -41.334 84 -50.001c17.333 6.66699 62.666 21.667 135.999 45z" />
    <glyph glyph-name="uFEFB" unicode="&#xfedf;&#xfe8e;" horiz-adv-x="1052" arabic-form="isolated" 
d="M1052 1020l-66.001 -152.002l-35 28c-15.333 -193.333 -60.333 -358 -135 -494c50 -88.667 75 -173.334 75 -254.001c0 -28.667 -3.33301 -61 -10 -97c-9.33301 -50.667 -22 -78.667 -38 -84c-87.333 -28 -197.666 -42 -330.999 -42c-36.667 0 -75 1 -115 3
c3.33301 38.667 9 99.334 17 182.001c110.667 64.667 211.334 156.667 302.001 276c-121.333 163.333 -244 302 -368 416c-26.667 -49.333 -46 -74 -58 -74c-16 0 -50 28.667 -102 86c-57.333 63.333 -86 116 -86 158c0 26 5.66699 55.667 17 89
c15.333 44.667 34.333 67 57 67c41.333 0 114 -52.667 218 -158c76.667 -77.333 140 -148.666 190 -213.999c70.667 -92 134 -184.667 190 -278c47.333 108 71 225.333 71 352c0 90.667 -11.667 191.334 -35 302.001c33.333 30 64.666 67.333 93.999 112
c26 -97.333 75.333 -172 148 -224zM803.999 119.998c3.33301 15.333 5.00098 30.667 5.00098 46c0 49.333 -19 100 -57 152c-52.667 -80 -112.667 -147 -180 -201c46 -4.66699 87 -7 123 -7c43.333 0 79.666 3.33301 108.999 10z" />
    <glyph glyph-name="uFEFC" unicode="&#xfee0;&#xfe8e;" horiz-adv-x="1212" arabic-form="final" 
d="M1242 1l-60 -0.000976562c-79.333 0 -137.333 40.667 -174 122c-23.333 52 -44.333 144.333 -63 277c-112.667 -255.333 -211.667 -407.666 -297 -456.999c-18.667 -10.667 -74 -21.667 -166 -33c-104.667 -12.667 -202.667 -18.667 -294 -18c-58 0.666992 -87 6 -87 16
c0 10.667 27 22.667 81 36c110.667 27.333 192.667 51.333 246 72c84 32 160.333 76.667 229 134c10 42.667 15 86 15 130c0 209.333 -91.333 404 -274 584c-30 -42 -48.667 -63 -56 -63c-12.667 0 -42 29.667 -88 89c-50.667 65.333 -76 119.333 -76 162
c0 26.667 7.33301 57.667 22 93c17.333 42 37.333 63 60 63c42.667 0 114.334 -62.667 215.001 -188c84 -104.667 142.667 -188.667 176 -252c66.667 -127.333 100 -251 100 -371c0 -64 -9.33301 -124.333 -28 -181c69.333 66.667 117.333 140 144 220
c22.667 68 34 157.333 34 268c0 41.333 -2 106 -6 194c-4.66699 100.667 -7.66699 178 -9 232l94 108c10.667 12 17.667 18 21 18s5.33301 -8 6 -24l16 -494c7.33301 -218 22 -375 44 -471c15.333 -66 52.666 -99 111.999 -99h63v-167z" />
    <glyph glyph-name="u0652_u064E.liga" unicode="&#x652;&#x64e;" horiz-adv-x="1" 
d="M211 1013c-3.33301 -11.333 -13.666 -27.001 -30.999 -47.001c0 46 -1 81.667 -3 107c-3.33301 41.333 -9.33301 97.666 -18 168.999c8.66699 12.667 20.667 28 36 46c6 -31.333 11 -100.666 15 -207.999c1.33301 -33.333 1.66602 -55.666 0.999023 -66.999z" />
    <glyph glyph-name="u0652_u064B.liga" unicode="&#x652;&#x64b;" horiz-adv-x="1" 
d="M608 985l-76 -132l-187 103l-57 -99l-204 112l78 136l185 -106l59 102z" />
    <glyph glyph-name="u0652_u064D.liga" unicode="&#x652;&#x64d;" horiz-adv-x="1" 
d="M960 -803l-76 -132l-187 103l-57 -99l-204 112l78 136l185 -106l59 102z" />
    <glyph glyph-name="u0622" unicode="&#x622;" horiz-adv-x="670" arabic-form="isolated" 
d="M556 159c-14 -45.333 -55.333 -108.334 -124 -189.001c0 180 -4 322.667 -12 428c-12.667 168 -36 393.667 -70 677c33.333 48.667 81 109.667 143 183c24.667 -127.333 44.667 -404.666 60 -831.999c4.66699 -129.333 5.66699 -218.333 3 -267zM704 1503
c-30 -91.333 -73.6709 -137.001 -131.004 -137.001c-35.333 0 -87.333 7.5 -156 22.5s-120.667 22.5 -156 22.5c-27.333 0 -58.666 -16.667 -93.999 -50c-7.33301 -6.66699 -13.333 -8.66699 -18 -6c-4.66699 3.33301 -5.66699 10.666 -3 21.999
c6 28.667 19.333 55.334 40 80.001c30.667 37.333 69.334 56 116.001 56c28.667 0 70.834 -7.5 126.501 -22.5s97.834 -22.5 126.501 -22.5c58 0 101.333 17.333 130 52c4 4.66699 8.66699 7.33398 14 8.00098c5.33301 0 8 -3.66699 8 -11c0 -3.33301 -1 -8 -3 -14z" />
    <glyph glyph-name="u0623" unicode="&#x623;" horiz-adv-x="480" arabic-form="isolated" 
d="M466 159c-14 -45.333 -55.333 -108.334 -124 -189.001c0 180 -4 322.667 -12 428c-12.667 168 -36 393.667 -70 677c33.333 48.667 81 109.667 143 183c24.667 -127.333 44.667 -404.666 60 -831.999c4.66699 -129.333 5.66699 -218.333 3 -267zM517 1499
c-7.33301 -33.333 -18.999 -69.668 -34.999 -109.001c-90.667 -20 -176.334 -56.333 -257.001 -109c-29.333 -19.333 -46.333 -29 -51 -29c-25.333 0 -35.666 8.33301 -30.999 25c15.333 32.667 52.333 71 111 115c-57.333 58.667 -89.333 103.334 -96 134.001
c22 58.667 43 98.334 63 119.001c28 28.667 69 43 123 43c34.667 0 63 -4 85 -12v-104c-36 17.333 -71.667 26 -107 26c-32 0 -60.667 -7.33301 -86 -22c10.667 -23.333 31 -47.333 61 -72s58 -41.334 84 -50.001c17.333 6.66699 62.666 21.667 135.999 45z" />
    <glyph glyph-name="u0624" unicode="&#x624;" horiz-adv-x="971" arabic-form="isolated" 
d="M970 128c0 -139.333 -45.6689 -271 -137.002 -395c-99.333 -135.333 -216.333 -203 -351 -203c-73.333 0 -147.666 31 -222.999 93c-66.667 54.667 -117 119 -151 193c-8 17.333 -12 29.333 -12 36c0 4.66699 1.66699 7 5 7c6.66699 0 17.667 -7.66699 33 -23
c100.667 -98.667 200.667 -148 300 -148c104 0 200.667 37.333 290 112c73.333 61.333 119.333 123 138 185c-95.333 7.33301 -161.666 22.333 -198.999 45c-52.667 32 -79 90.667 -79 176c0 60 18.667 125.667 56 197c41.333 78.667 85 118 131 118
c59.333 0 109.333 -53 150 -159c32.667 -85.333 49 -163.333 49 -234zM879.998 144c-8.66699 40.667 -22.332 77 -40.999 109c-24.667 42 -51.667 63 -81 63c-20.667 0 -38.834 -9.16699 -54.501 -27.5s-23.5 -37.833 -23.5 -58.5c0 -50 66.667 -78.667 200 -86zM882 884
c-7.33301 -33.333 -18.999 -69.668 -34.999 -109.001c-90.667 -20 -176.334 -56.333 -257.001 -109c-29.333 -19.333 -46.333 -29 -51 -29c-25.333 0 -35.666 8.33301 -30.999 25c15.333 32.667 52.333 71 111 115c-57.333 58.667 -89.333 103.334 -96 134.001
c22 58.667 43 98.334 63 119.001c28 28.667 69 43 123 43c34.667 0 63 -4 85 -12v-104c-36 17.333 -71.667 26 -107 26c-32 0 -60.667 -7.33301 -86 -22c10.667 -23.333 31 -47.333 61 -72s58 -41.334 84 -50.001c17.333 6.66699 62.666 21.667 135.999 45z" />
    <glyph glyph-name="u0625" unicode="&#x625;" horiz-adv-x="475" arabic-form="isolated" 
d="M446 159c-14 -45.333 -55.333 -108.334 -124 -189.001c0 180 -4 322.667 -12 428c-12.667 168 -36 393.667 -70 677c33.333 48.667 81 109.667 143 183c24.667 -127.333 44.667 -404.666 60 -831.999c4.66699 -129.333 5.66699 -218.333 3 -267zM547 -351.001
c-7.33301 -33.333 -18.999 -69.668 -34.999 -109.001c-90.667 -20 -176.334 -56.333 -257.001 -109c-29.333 -19.333 -46.333 -29 -51 -29c-25.333 0 -35.666 8.33301 -30.999 25c15.333 32.667 52.333 71 111 115c-57.333 58.667 -89.333 103.334 -96 134.001
c22 58.667 43 98.334 63 119.001c28 28.667 69 43 123 43c34.667 0 63 -4 85 -12v-104c-36 17.333 -71.667 26 -107 26c-32 0 -60.667 -7.33301 -86 -22c10.667 -23.333 31 -47.333 61 -72s58 -41.334 84 -50.001c17.333 6.66699 62.666 21.667 135.999 45z" />
    <glyph glyph-name="u0626" unicode="&#x626;" horiz-adv-x="1380" arabic-form="isolated" 
d="M1380 522c0 -26 -6.00098 -55.335 -18.001 -88.002c-12.667 -35.333 -28 -60.666 -46 -75.999c-16.667 32 -51.334 48 -104.001 48c-54.667 0 -128 -23.667 -220 -71c-100.667 -52 -158 -103 -172 -153c30.667 -10.667 134.334 -33.667 311.001 -69
c120 -24 181 -49.667 183 -77c1.33301 -17.333 2 -31 2 -41c0 -74 -16 -129 -48 -165c-48 -54 -142.333 -109.667 -283 -167c-159.333 -64.667 -306.333 -97 -441 -97c-112 0 -200.5 31.5 -265.5 94.5s-97.5 150.167 -97.5 261.5c0 79.333 26 172.666 78 279.999
c46.667 96 100.667 177.667 162 245c16.667 18 29 27 37 27c4.66699 0 7 -3 7 -9c0 -8.66699 -5.33301 -22 -16 -40c-56 -95.333 -91.333 -158.666 -106 -189.999c-40 -85.333 -60 -164.666 -60 -237.999c0 -82 29 -145.667 87 -191c52.667 -42 121 -63 205 -63
c100.667 0 219.334 23.333 356.001 70c116.667 40 205 80.333 265 121l-350 60c-80 14 -120 37.333 -120 70c0 68 21.333 138.667 64 212c39.333 68.667 88 124.667 146 168c132 98.667 251.333 148 358 148c57.333 0 86 -23.333 86 -70zM596.999 748.998
c-7.33301 -33.333 -18.999 -69.668 -34.999 -109.001c-90.667 -20 -176.334 -56.333 -257.001 -109c-29.333 -19.333 -46.333 -29 -51 -29c-25.333 0 -35.666 8.33301 -30.999 25c15.333 32.667 52.333 71 111 115c-57.333 58.667 -89.333 103.334 -96 134.001
c22 58.667 43 98.334 63 119.001c28 28.667 69 43 123 43c34.667 0 63 -4 85 -12v-104c-36 17.333 -71.667 26 -107 26c-32 0 -60.667 -7.33301 -86 -22c10.667 -23.333 31 -47.333 61 -72s58 -41.334 84 -50.001c17.333 6.66699 62.666 21.667 135.999 45z" />
    <glyph glyph-name="u0627" unicode="&#x627;" horiz-adv-x="387" arabic-form="isolated" 
d="M386 159c-14 -45.333 -55.333 -108.334 -124 -189.001c0 180 -4 322.667 -12 428c-12.667 168 -36 393.667 -70 677c33.333 48.667 81 109.667 143 183c24.667 -127.333 44.667 -404.666 60 -831.999c4.66699 -129.333 5.66699 -218.333 3 -267z" />
    <glyph glyph-name="u0628" unicode="&#x628;" horiz-adv-x="1405" arabic-form="isolated" 
d="M1404 170c0 -79.333 -25.999 -134.333 -77.999 -165c-43.333 -26 -153 -49.333 -329 -70c-152 -18 -269.333 -27 -352 -27c-309.333 0 -464 92 -464 276c0 88 30.667 163.333 92 226c8 8 14 10.667 18 8c3.33301 -3.33301 2.66602 -10 -2.00098 -20
c-18.667 -40.667 -28 -86.667 -28 -138c0 -85.333 54 -140.666 162 -165.999c51.333 -12 144 -18 278 -18c106.667 0 226 9 358 27c146.667 20 231 43 253 69c-16.667 53.333 -53 107 -109 161l77 169c33.333 -24.667 63 -76.334 89 -155.001c23.333 -70 35 -129 35 -177z
M928.001 -432l-76 -132l-204 112l78 136z" />
    <glyph glyph-name="u0629" unicode="&#x629;" horiz-adv-x="766" arabic-form="isolated" 
d="M765 298c0 -34.667 -7.66504 -80.668 -22.998 -138.001c-17.333 -65.333 -36.333 -106 -57 -122c-34.667 -26.667 -89.667 -40 -165 -40s-145 11.333 -209 34c-86.667 30.667 -130 76.667 -130 138c0 39.333 20 95 60 167c32 57.333 61.667 101.333 89 132
c-18.667 26.667 -28 47.334 -28 62.001c0 20 18 50 54 90c28 30.667 54.333 55.667 79 75c3.33301 -64 33.666 -119.667 90.999 -167c97.333 -63.333 146.666 -95.333 147.999 -96c60.667 -47.333 91 -92.333 91 -135zM647.002 212.999c0 9.33301 -41 44.666 -123 105.999
l-147 110c-59.333 -86 -89 -143.667 -89 -173c0 -23.333 27 -44.666 81 -63.999c48.667 -17.333 95 -26 139 -26c92.667 0 139 15.667 139 47zM572.002 1034c-7.33301 -33.333 -18.999 -69.668 -34.999 -109.001c-90.667 -20 -176.334 -56.333 -257.001 -109
c-29.333 -19.333 -46.333 -29 -51 -29c-25.333 0 -35.666 8.33301 -30.999 25c15.333 32.667 52.333 71 111 115c-57.333 58.667 -89.333 103.334 -96 134.001c22 58.667 43 98.334 63 119.001c28 28.667 69 43 123 43c34.667 0 63 -4 85 -12v-104
c-36 17.333 -71.667 26 -107 26c-32 0 -60.667 -7.33301 -86 -22c10.667 -23.333 31 -47.333 61 -72s58 -41.334 84 -50.001c17.333 6.66699 62.666 21.667 135.999 45z" />
    <glyph glyph-name="u062A" unicode="&#x62a;" horiz-adv-x="1405" arabic-form="isolated" 
d="M1404 170c0 -79.333 -25.999 -134.333 -77.999 -165c-43.333 -26 -153 -49.333 -329 -70c-152 -18 -269.333 -27 -352 -27c-309.333 0 -464 92 -464 276c0 88 30.667 163.333 92 226c8 8 14 10.667 18 8c3.33301 -3.33301 2.66602 -10 -2.00098 -20
c-18.667 -40.667 -28 -86.667 -28 -138c0 -85.333 54 -140.666 162 -165.999c51.333 -12 144 -18 278 -18c106.667 0 226 9 358 27c146.667 20 231 43 253 69c-16.667 53.333 -53 107 -109 161l77 169c33.333 -24.667 63 -76.334 89 -155.001c23.333 -70 35 -129 35 -177z
M1048 618l-76 -132l-187 103l-57 -99l-204 112l78 136l185 -106l59 102z" />
    <glyph glyph-name="u062B" unicode="&#x62b;" horiz-adv-x="1405" arabic-form="isolated" 
d="M1404 170c0 -79.333 -25.999 -134.333 -77.999 -165c-43.333 -26 -153 -49.333 -329 -70c-152 -18 -269.333 -27 -352 -27c-309.333 0 -464 92 -464 276c0 88 30.667 163.333 92 226c8 8 14 10.667 18 8c3.33301 -3.33301 2.66602 -10 -2.00098 -20
c-18.667 -40.667 -28 -86.667 -28 -138c0 -85.333 54 -140.666 162 -165.999c51.333 -12 144 -18 278 -18c106.667 0 226 9 358 27c146.667 20 231 43 253 69c-16.667 53.333 -53 107 -109 161l77 169c33.333 -24.667 63 -76.334 89 -155.001c23.333 -70 35 -129 35 -177z
M844.001 862l-76 -132l-204 112l78 136zM1045 619l-76 -132l-180 99l-57 -99l-204 112l78 136l178 -103l59 103z" />
    <glyph glyph-name="u062C" unicode="&#x62c;" horiz-adv-x="1017" arabic-form="isolated" 
d="M1066 -589c-97.333 -59.333 -163.667 -95.667 -199 -109c-51.333 -19.333 -124.333 -29 -219 -29c-296.667 0 -445 163.333 -445 490c0 211.333 76.667 392.333 230 543c-41.333 4 -69 6 -83 6c-42 0 -86 -20.333 -132 -61c-8.66699 -8 -17 -12 -25 -12
c-8.66699 0 -13 5 -13 15c0 6 2 13.333 6 22c64.667 140 142 210 232 210c36.667 0 91.167 -5.16699 163.5 -15.5s126.833 -15.5 163.5 -15.5c63.333 0 141.666 10.333 234.999 31c18 4 28.667 4.33301 32 1s2 -14.333 -4 -33l-48 -152c-61.333 -4 -138 -11.333 -230 -22
c-131.333 -15.333 -240.666 -65.666 -327.999 -150.999c-38 -37.333 -68.667 -87 -92 -149c-22.667 -59.333 -34 -117 -34 -173c0 -236.667 157 -355 471 -355c127.333 0 225.333 6.66699 294 20c30.667 6 53.667 9 69 9c17.333 0 26 -3.66699 26 -11
c0 -10.667 -23.333 -30.334 -70 -59.001zM837.999 -207.001l-76 -132l-204 112l78 136z" />
    <glyph glyph-name="u062D" unicode="&#x62d;" horiz-adv-x="1017" arabic-form="isolated" 
d="M1066 -589c-97.333 -59.333 -163.667 -95.667 -199 -109c-51.333 -19.333 -124.333 -29 -219 -29c-296.667 0 -445 163.333 -445 490c0 211.333 76.667 392.333 230 543c-41.333 4 -69 6 -83 6c-42 0 -86 -20.333 -132 -61c-8.66699 -8 -17 -12 -25 -12
c-8.66699 0 -13 5 -13 15c0 6 2 13.333 6 22c64.667 140 142 210 232 210c36.667 0 91.167 -5.16699 163.5 -15.5s126.833 -15.5 163.5 -15.5c63.333 0 141.666 10.333 234.999 31c18 4 28.667 4.33301 32 1s2 -14.333 -4 -33l-48 -152c-61.333 -4 -138 -11.333 -230 -22
c-131.333 -15.333 -240.666 -65.666 -327.999 -150.999c-38 -37.333 -68.667 -87 -92 -149c-22.667 -59.333 -34 -117 -34 -173c0 -236.667 157 -355 471 -355c127.333 0 225.333 6.66699 294 20c30.667 6 53.667 9 69 9c17.333 0 26 -3.66699 26 -11
c0 -10.667 -23.333 -30.334 -70 -59.001z" />
    <glyph glyph-name="u062E" unicode="&#x62e;" horiz-adv-x="1017" arabic-form="isolated" 
d="M1066 -589c-97.333 -59.333 -163.667 -95.667 -199 -109c-51.333 -19.333 -124.333 -29 -219 -29c-296.667 0 -445 163.333 -445 490c0 211.333 76.667 392.333 230 543c-41.333 4 -69 6 -83 6c-42 0 -86 -20.333 -132 -61c-8.66699 -8 -17 -12 -25 -12
c-8.66699 0 -13 5 -13 15c0 6 2 13.333 6 22c64.667 140 142 210 232 210c36.667 0 91.167 -5.16699 163.5 -15.5s126.833 -15.5 163.5 -15.5c63.333 0 141.666 10.333 234.999 31c18 4 28.667 4.33301 32 1s2 -14.333 -4 -33l-48 -152c-61.333 -4 -138 -11.333 -230 -22
c-131.333 -15.333 -240.666 -65.666 -327.999 -150.999c-38 -37.333 -68.667 -87 -92 -149c-22.667 -59.333 -34 -117 -34 -173c0 -236.667 157 -355 471 -355c127.333 0 225.333 6.66699 294 20c30.667 6 53.667 9 69 9c17.333 0 26 -3.66699 26 -11
c0 -10.667 -23.333 -30.334 -70 -59.001zM727.999 857.999l-76 -132l-204 112l78 136z" />
    <glyph glyph-name="u062F" unicode="&#x62f;" horiz-adv-x="828" arabic-form="isolated" 
d="M828 153c0 -78.667 -27.002 -131.334 -81.002 -158.001c-34 -16.667 -98 -30.334 -192 -41.001c-64.667 -7.33301 -119.334 -11 -164.001 -11c-68 0 -118 10.333 -150 31c-39.333 26 -59 71.333 -59 136c0 54 13.333 103 40 147c12.667 20.667 22.334 31 29.001 31
c8.66699 0 10.334 -15.333 5.00098 -46c-2 -11.333 -3 -22.666 -3 -33.999c0 -60 48.333 -90 145 -90c39.333 0 95 5.66699 167 17c80 12.667 132.333 26 157 40c0 64 -52.667 193.667 -158 389l85 182c6.66699 14.667 13.334 14.334 20.001 -0.999023
c47.333 -107.333 86.333 -221 117 -341c28 -109.333 42 -193 42 -251z" />
    <glyph glyph-name="u0630" unicode="&#x630;" horiz-adv-x="828" arabic-form="isolated" 
d="M828 153c0 -78.667 -27.002 -131.334 -81.002 -158.001c-34 -16.667 -98 -30.334 -192 -41.001c-64.667 -7.33301 -119.334 -11 -164.001 -11c-68 0 -118 10.333 -150 31c-39.333 26 -59 71.333 -59 136c0 54 13.333 103 40 147c12.667 20.667 22.334 31 29.001 31
c8.66699 0 10.334 -15.333 5.00098 -46c-2 -11.333 -3 -22.666 -3 -33.999c0 -60 48.333 -90 145 -90c39.333 0 95 5.66699 167 17c80 12.667 132.333 26 157 40c0 64 -52.667 193.667 -158 389l85 182c6.66699 14.667 13.334 14.334 20.001 -0.999023
c47.333 -107.333 86.333 -221 117 -341c28 -109.333 42 -193 42 -251zM632.998 1028l-76 -132l-204 112l78 136z" />
    <glyph glyph-name="u0631" unicode="&#x631;" horiz-adv-x="928" arabic-form="isolated" 
d="M927 113c0 -128.667 -46.668 -245.331 -140.001 -349.998c-110.667 -124.667 -231 -187 -361 -187c-104 0 -202.667 58 -296 174c-20.667 26 -31 44 -31 54c0 5.33301 3 8 9 8c9.33301 0 49.333 -12.5 120 -37.5s124 -37.5 160 -37.5
c106.667 0 210.334 46.667 311.001 140c87.333 81.333 131 147.666 131 198.999c0 45.333 -58.667 124.666 -176 237.999l63 138c7.33301 16.667 18 18.667 32 6c41.333 -36.667 78 -81 110 -133c45.333 -73.333 68 -144 68 -212z" />
    <glyph glyph-name="u0632" unicode="&#x632;" horiz-adv-x="928" arabic-form="isolated" 
d="M927 113c0 -128.667 -46.668 -245.331 -140.001 -349.998c-110.667 -124.667 -231 -187 -361 -187c-104 0 -202.667 58 -296 174c-20.667 26 -31 44 -31 54c0 5.33301 3 8 9 8c9.33301 0 49.333 -12.5 120 -37.5s124 -37.5 160 -37.5
c106.667 0 210.334 46.667 311.001 140c87.333 81.333 131 147.666 131 198.999c0 45.333 -58.667 124.666 -176 237.999l63 138c7.33301 16.667 18 18.667 32 6c41.333 -36.667 78 -81 110 -133c45.333 -73.333 68 -144 68 -212zM662.999 888.003l-76 -132l-204 112l78 136
z" />
    <glyph glyph-name="u0633" unicode="&#x633;" horiz-adv-x="1902" arabic-form="isolated" 
d="M1902 222c0 -102 -11.333 -164.67 -34 -188.003c-25.333 -26.667 -92 -40 -200 -40c-134.667 0 -225 19.667 -271 59c-38.667 -34.667 -113.667 -52 -225 -52c-27.333 -151.333 -62 -247 -104 -287c-35.333 -34 -97 -67.667 -185 -101
c-110.667 -42 -217.334 -63 -320.001 -63c-113.333 0 -203 24 -269 72c-75.333 54.667 -113 136.667 -113 246c0 77.333 20.667 158 62 242c30.667 62.667 62.334 110.667 95.001 144c18 18.667 31.667 28 41 28c4.66699 0 7 -2.66699 7 -8
c0 -8.66699 -5.33301 -21.667 -16 -39c-22.667 -37.333 -44.334 -83.666 -65.001 -138.999c-23.333 -62.667 -35 -113 -35 -151c0 -148.667 107 -223 321 -223c78.667 0 166.334 14.333 263.001 43c117.333 34.667 190.666 78.667 219.999 132
c0 106.667 -42 225.667 -126 357l104 152c51.333 -59.333 90 -138.666 116 -237.999h216c6 24.667 9 49.334 9 74.001c0 25.333 -3 50.666 -9 75.999c0 -4 43.333 40.667 130 134c8 -17.333 12 -44.666 12 -81.999c0 -70 -14 -132 -42 -186
c26.667 -17.333 77.334 -26 152.001 -26c61.333 0 108 5.33301 140 16c1.33301 46 -13.667 100.667 -45 164l137 136c22.667 -100.667 34 -184.667 34 -252z" />
    <glyph glyph-name="u0634" unicode="&#x634;" horiz-adv-x="1902" arabic-form="isolated" 
d="M1902 222c0 -102 -11.333 -164.67 -34 -188.003c-25.333 -26.667 -92 -40 -200 -40c-134.667 0 -225 19.667 -271 59c-38.667 -34.667 -113.667 -52 -225 -52c-27.333 -151.333 -62 -247 -104 -287c-35.333 -34 -97 -67.667 -185 -101
c-110.667 -42 -217.334 -63 -320.001 -63c-113.333 0 -203 24 -269 72c-75.333 54.667 -113 136.667 -113 246c0 77.333 20.667 158 62 242c30.667 62.667 62.334 110.667 95.001 144c18 18.667 31.667 28 41 28c4.66699 0 7 -2.66699 7 -8
c0 -8.66699 -5.33301 -21.667 -16 -39c-22.667 -37.333 -44.334 -83.666 -65.001 -138.999c-23.333 -62.667 -35 -113 -35 -151c0 -148.667 107 -223 321 -223c78.667 0 166.334 14.333 263.001 43c117.333 34.667 190.666 78.667 219.999 132
c0 106.667 -42 225.667 -126 357l104 152c51.333 -59.333 90 -138.666 116 -237.999h216c6 24.667 9 49.334 9 74.001c0 25.333 -3 50.666 -9 75.999c0 -4 43.333 40.667 130 134c8 -17.333 12 -44.666 12 -81.999c0 -70 -14 -132 -42 -186
c26.667 -17.333 77.334 -26 152.001 -26c61.333 0 108 5.33301 140 16c1.33301 46 -13.667 100.667 -45 164l137 136c22.667 -100.667 34 -184.667 34 -252zM1541 981.997l-76 -132l-204 112l78 136zM1742 738.997l-76 -132l-180 99l-57 -99l-204 112l78 136l178 -103
l59 103z" />
    <glyph glyph-name="u0635" unicode="&#x635;" horiz-adv-x="2280" arabic-form="isolated" 
d="M2278 172c0 -78.667 -11.999 -130.669 -35.999 -156.002c-17.333 -18 -55.333 -29.333 -114 -34c-22.667 -2 -92 -3.33301 -208 -4c-79.333 -0.666992 -328.666 7 -747.999 23c-27.333 -151.333 -62 -247 -104 -287c-35.333 -34 -97 -67.667 -185 -101
c-110.667 -42 -217.334 -63 -320.001 -63c-113.333 0 -203 24 -269 72c-75.333 54.667 -113 136.667 -113 246c0 77.333 20.667 158 62 242c30.667 62.667 62.334 110.667 95.001 144c18 18.667 31.667 28 41 28c4.66699 0 7 -2.66699 7 -8
c0 -8.66699 -5.33301 -21.667 -16 -39c-22.667 -37.333 -44.334 -83.666 -65.001 -138.999c-23.333 -62.667 -35 -113 -35 -151c0 -148.667 107 -223 321 -223c78.667 0 166.334 14.333 263.001 43c117.333 34.667 190.666 78.667 219.999 132
c0 106.667 -42 225.667 -126 357l104 152c51.333 -59.333 90 -138.666 116 -237.999h52c59.333 18 168.333 85 327 201c141.333 103.333 243.666 155 306.999 155c50 0 125.333 -25.333 226 -76c105.333 -53.333 164.666 -99.333 178 -138
c13.333 -38.667 20 -84.667 20 -138zM2162 197.998c0 17.333 -51.334 48 -154.001 92c-99.333 42.667 -164 64 -194 64c-51.333 0 -115.666 -24.333 -192.999 -73l-183 -115c52 -13.333 165.333 -20 340 -20c256 0 384 17.333 384 52z" />
    <glyph glyph-name="u0636" unicode="&#x636;" horiz-adv-x="2280" arabic-form="isolated" 
d="M2278 172c0 -78.667 -11.999 -130.669 -35.999 -156.002c-17.333 -18 -55.333 -29.333 -114 -34c-22.667 -2 -92 -3.33301 -208 -4c-79.333 -0.666992 -328.666 7 -747.999 23c-27.333 -151.333 -62 -247 -104 -287c-35.333 -34 -97 -67.667 -185 -101
c-110.667 -42 -217.334 -63 -320.001 -63c-113.333 0 -203 24 -269 72c-75.333 54.667 -113 136.667 -113 246c0 77.333 20.667 158 62 242c30.667 62.667 62.334 110.667 95.001 144c18 18.667 31.667 28 41 28c4.66699 0 7 -2.66699 7 -8
c0 -8.66699 -5.33301 -21.667 -16 -39c-22.667 -37.333 -44.334 -83.666 -65.001 -138.999c-23.333 -62.667 -35 -113 -35 -151c0 -148.667 107 -223 321 -223c78.667 0 166.334 14.333 263.001 43c117.333 34.667 190.666 78.667 219.999 132
c0 106.667 -42 225.667 -126 357l104 152c51.333 -59.333 90 -138.666 116 -237.999h52c59.333 18 168.333 85 327 201c141.333 103.333 243.666 155 306.999 155c50 0 125.333 -25.333 226 -76c105.333 -53.333 164.666 -99.333 178 -138
c13.333 -38.667 20 -84.667 20 -138zM2162 197.998c0 17.333 -51.334 48 -154.001 92c-99.333 42.667 -164 64 -194 64c-51.333 0 -115.666 -24.333 -192.999 -73l-183 -115c52 -13.333 165.333 -20 340 -20c256 0 384 17.333 384 52zM1918 902.998l-76 -132l-204 112
l78 136z" />
    <glyph glyph-name="u0637" unicode="&#x637;" horiz-adv-x="1347" arabic-form="isolated" 
d="M1343 100c-15.333 -58 -75.6689 -93.332 -181.002 -105.999c-22 -2.66699 -103 -4 -243 -4c-32 0 -254 3.33301 -666 10l-61 119c-7.33301 14 -11 23.333 -11 28c0 8.66699 18 13 54 13c52.667 0 104.334 3.33301 155.001 10c92 12 138 31.667 138 59l-1 305
c0 221.333 -25 403.333 -75 546l134 170c0 -122 36 -202.667 108 -242c-18 -61.333 -44 -108 -78 -140c16.667 -97.333 25 -167 25 -209v-148c0 -38.667 -2.66699 -82.667 -8 -132l-12 -111l207 160c60.667 46.667 115.667 70 165 70c70 0 140.667 -18.667 212 -56
c81.333 -42.667 127.333 -95.334 138 -158.001c2 -12 3.33301 -43 4 -93c0.666992 -48 -0.666016 -78.333 -3.99902 -91zM1237 206.001c0 28 -42 57.333 -126 88c-74.667 27.333 -130.667 41 -168 41c-46.667 0 -96 -19.333 -148 -58l-154 -117
c106.667 -8.66699 204.667 -10.667 294 -6c201.333 10.667 302 28 302 52z" />
    <glyph glyph-name="u0638" unicode="&#x638;" horiz-adv-x="1347" arabic-form="isolated" 
d="M1343 100c-15.333 -58 -75.6689 -93.332 -181.002 -105.999c-22 -2.66699 -103 -4 -243 -4c-32 0 -254 3.33301 -666 10l-61 119c-7.33301 14 -11 23.333 -11 28c0 8.66699 18 13 54 13c52.667 0 104.334 3.33301 155.001 10c92 12 138 31.667 138 59l-1 305
c0 221.333 -25 403.333 -75 546l134 170c0 -122 36 -202.667 108 -242c-18 -61.333 -44 -108 -78 -140c16.667 -97.333 25 -167 25 -209v-148c0 -38.667 -2.66699 -82.667 -8 -132l-12 -111l207 160c60.667 46.667 115.667 70 165 70c70 0 140.667 -18.667 212 -56
c81.333 -42.667 127.333 -95.334 138 -158.001c2 -12 3.33301 -43 4 -93c0.666992 -48 -0.666016 -78.333 -3.99902 -91zM1237 206.001c0 28 -42 57.333 -126 88c-74.667 27.333 -130.667 41 -168 41c-46.667 0 -96 -19.333 -148 -58l-154 -117
c106.667 -8.66699 204.667 -10.667 294 -6c201.333 10.667 302 28 302 52zM1128 858.001l-76 -132l-204 112l78 136z" />
    <glyph glyph-name="u0639" unicode="&#x639;" horiz-adv-x="886" arabic-form="isolated" 
d="M1159 -561c-172 -118 -359.326 -176.997 -561.993 -176.997c-130 0 -231.833 36.833 -305.5 110.5s-110.5 175.5 -110.5 305.5c0 200.667 76.667 382 230 544c-97.333 50.667 -146 108.667 -146 174c0 49.333 20 113.666 60 192.999c51.333 102 112 153 182 153
c84 0 151.333 -39 202 -117c15.333 -24 23 -40.333 23 -49c0 -8 -6.66699 -12 -20 -12c-6 0 -15 1 -27 3c-47.333 8 -87 12 -119 12c-82.667 0 -147 -28.333 -193 -85c12.667 -24.667 36 -49.667 70 -75c43.333 -32.667 86.666 -49 129.999 -49
c19.333 0 59.333 13.667 120 41c78 35.333 129.333 57.666 154 66.999c3.33301 1.33301 9.66602 3.66602 18.999 6.99902c10.667 3.33301 16.667 3.33301 18 0c-0.666992 -6 -2.33398 -15.667 -5.00098 -29l-30 -144c-170.667 -70 -304.334 -148.667 -401.001 -236
c-48.667 -44 -90.334 -98.667 -125.001 -164c-38.667 -72 -58 -137.333 -58 -196c0 -119.333 55 -200.333 165 -243c67.333 -26 169.666 -39 306.999 -39c154.667 0 280.667 13 378 39c25.333 6.66699 44.666 10 57.999 10c12.667 0 19 -3 19 -9c0 -8 -11 -19.667 -33 -35z
" />
    <glyph glyph-name="u063A" unicode="&#x63a;" horiz-adv-x="886" arabic-form="isolated" 
d="M1159 -561c-172 -118 -359.326 -176.997 -561.993 -176.997c-130 0 -231.833 36.833 -305.5 110.5s-110.5 175.5 -110.5 305.5c0 200.667 76.667 382 230 544c-97.333 50.667 -146 108.667 -146 174c0 49.333 20 113.666 60 192.999c51.333 102 112 153 182 153
c84 0 151.333 -39 202 -117c15.333 -24 23 -40.333 23 -49c0 -8 -6.66699 -12 -20 -12c-6 0 -15 1 -27 3c-47.333 8 -87 12 -119 12c-82.667 0 -147 -28.333 -193 -85c12.667 -24.667 36 -49.667 70 -75c43.333 -32.667 86.666 -49 129.999 -49
c19.333 0 59.333 13.667 120 41c78 35.333 129.333 57.666 154 66.999c3.33301 1.33301 9.66602 3.66602 18.999 6.99902c10.667 3.33301 16.667 3.33301 18 0c-0.666992 -6 -2.33398 -15.667 -5.00098 -29l-30 -144c-170.667 -70 -304.334 -148.667 -401.001 -236
c-48.667 -44 -90.334 -98.667 -125.001 -164c-38.667 -72 -58 -137.333 -58 -196c0 -119.333 55 -200.333 165 -243c67.333 -26 169.666 -39 306.999 -39c154.667 0 280.667 13 378 39c25.333 6.66699 44.666 10 57.999 10c12.667 0 19 -3 19 -9c0 -8 -11 -19.667 -33 -35z
M658.007 1073l-76 -132l-204 112l78 136z" />
    <glyph glyph-name="u0641" unicode="&#x641;" horiz-adv-x="1665" arabic-form="isolated" 
d="M1664 162c0 -47.333 -5.66797 -81.3369 -17.001 -102.004c-20.667 -38 -88.667 -60.667 -204 -68c-42 -1.33301 -117 -4.66602 -225 -9.99902c-307.333 -16.667 -484.333 -25 -531 -25c-146.667 0 -256 12.667 -328 38c-118.667 42 -178 122.333 -178 241
c0 71.333 17 134.666 51 189.999c15.333 25.333 27.666 38 36.999 38c4.66699 0 7 -4.33301 7 -13c0 -7.33301 -1.66699 -16.333 -5 -27c-13.333 -41.333 -17.666 -78.666 -12.999 -111.999c12 -87.333 65 -143.666 159 -168.999c44.667 -12 130 -18 256 -18
c44 0 193.667 6.33301 449 19c186.667 9.33301 301.334 18 344.001 26c-113.333 44.667 -183.333 78.334 -210 101.001c-24 20.667 -36 56.334 -36 107.001c0 54 25.667 122.667 77 206c54.667 89.333 105.667 134 153 134c66.667 0 120 -58.667 160 -176
c36 -105.333 54 -232 54 -380zM1583 279.996c-4 46 -20.334 98.667 -49.001 158c-34.667 72 -71 108 -109 108c-47.333 0 -88.666 -40.667 -123.999 -122zM1518 977.996l-76 -132l-204 112l78 136z" />
    <glyph glyph-name="u0642" unicode="&#x642;" horiz-adv-x="1206" arabic-form="isolated" 
d="M1198 -122c-29.333 -114.667 -115.667 -211.332 -259 -289.999c-128.667 -70.667 -257 -106 -385 -106c-117.333 0 -209.333 36.667 -276 110c-64.667 70.667 -97 165 -97 283c0 97.333 21 190.333 63 279c15.333 32.667 27.666 49 36.999 49c4.66699 0 7 -5.33301 7 -16
c0 -9.33301 -2.66699 -23.666 -8 -42.999c-21.333 -76.667 -32 -144.334 -32 -203.001c0 -192 103.333 -288 310 -288c214.667 0 397 77 547 231c1.33301 4.66699 2 11 2 19c0 23.333 -5 55.666 -15 96.999c-45.333 -4.66699 -80 -7 -104 -7c-68 0 -125 15.667 -171 47
c-53.333 36 -80 86.333 -80 151c0 53.333 20.667 120.666 62 201.999c47.333 92.667 95 139 143 139c65.333 0 124 -48.333 176 -145c40 -74 65 -147.333 75 -220c18.667 -133.333 20.334 -229.666 5.00098 -288.999zM1070 166.002c-44 120 -101.334 180 -172.001 180
c-17.333 0 -32.666 -8.83301 -45.999 -26.5s-20 -35.5 -20 -53.5c0 -68.667 61.333 -103 184 -103c17.333 0 35.333 1 54 3zM1123 838.002l-76 -132l-187 103l-57 -99l-204 112l78 136l185 -106l59 102z" />
    <glyph glyph-name="u0643" unicode="&#x643;" horiz-adv-x="1515" arabic-form="isolated" 
d="M1514 178c0 -17.333 -2.99902 -42.001 -8.99902 -74.001c-7.33301 -38.667 -14.333 -61.334 -21 -68.001c-26 -24.667 -166.667 -44.667 -422 -60c-100 -6 -225 -9 -375 -9c-174 0 -298.333 17 -373 51c-88.667 40.667 -133 113.334 -133 218.001
c0 71.333 17 134.666 51 189.999c15.333 25.333 27.666 38 36.999 38c4.66699 0 7 -4.33301 7 -13c0 -7.33301 -1.66699 -16.333 -5 -27c-13.333 -41.333 -17.666 -78.666 -12.999 -111.999c11.333 -85.333 65 -139.333 161 -162c42 -10 126.667 -15 254 -15
c275.333 0 504 11.667 686 35l-245 234c-49.333 46.667 -122 108 -218 184l-42 -50c-113.333 102 -170 164 -170 186c0 38.667 10 79.334 30 122.001c25.333 53.333 59.333 89.333 102 108l698 306l-56 -200c-120.667 -44.667 -331.334 -128.667 -632.001 -252
c130 -103.333 253.333 -206 370 -308c212 -186 318 -293.333 318 -322z" />
    <glyph glyph-name="u0644" unicode="&#x644;" horiz-adv-x="1070" arabic-form="isolated" 
d="M1071 -41c3.33301 -82 -43.332 -161 -139.999 -237c-106.667 -84 -232.334 -126 -377.001 -126c-115.333 0 -206.333 32.833 -273 98.5s-100 155.834 -100 270.501c0 109.333 25.667 206.666 77 291.999c18 30 30.667 45 38 45c4 0 6 -3.66699 6 -11
c0 -10 -3.33301 -26 -10 -48c-18 -58.667 -27 -117 -27 -175c0 -202.667 95.333 -304 286 -304c98.667 0 194.334 26 287.001 78c83.333 46.667 123.666 86.667 120.999 120l-81 1092l114 129c4.66699 5.33301 12 11 22 17c6 0 9.33301 -9.33301 10 -28z" />
    <glyph glyph-name="u0645" unicode="&#x645;" horiz-adv-x="942" arabic-form="isolated" 
d="M936 119l-38.002 -118.001c-39.333 -1.33301 -92 -0.666016 -158 2.00098c-82 3.33301 -140 5 -174 5c-173.333 0 -260 -16.667 -260 -50c0 -8.66699 10.667 -57.334 32 -146.001c22 -93.333 36.667 -162.666 44 -207.999c16.667 -108 22.667 -186.667 18 -236
c-5.33301 -59.333 -19.666 -106 -42.999 -140c-10 -14.667 -17 -22.667 -21 -24c-6.66699 0 -14.667 34.667 -24 104l-27 194c-1.33301 10.667 -5 30.334 -11 59.001c-3.33301 16 -24 101.667 -62 257c-21.333 87.333 -32 139.666 -32 156.999
c0 11.333 9.33301 37.5 28 78.5s32 63.833 40 68.5c60.667 34 192.334 49.667 395.001 47c-92 95.333 -145.667 143 -161 143c-21.333 0 -83.333 -27.333 -186 -82l10 92c121.333 125.333 196.666 188 225.999 188c18.667 0 61.667 -39 129 -117
c84.667 -98 137 -155.667 157 -173c34.667 -30 68.334 -50.333 101.001 -61c18 -6 23.667 -19.333 17 -40z" />
    <glyph glyph-name="u0646" unicode="&#x646;" horiz-adv-x="1163" arabic-form="isolated" 
d="M1162 36c0 -121.333 -20.332 -215.667 -60.999 -283c-29.333 -48 -88.666 -93.667 -177.999 -137c-110.667 -53.333 -231 -80 -361 -80c-254 0 -381 105 -381 315c0 124 45.333 241.333 136 352c25.333 30.667 43 46 53 46c3.33301 0 5 -2.66699 5 -8
c0 -11.333 -8 -32 -24 -62c-51.333 -95.333 -77 -181 -77 -257c0 -144 101 -216 303 -216c126 0 242.333 24.333 349 73c89.333 40.667 134 73.667 134 99c0 106 -41.333 224 -124 354l86 130c7.33301 11.333 12.666 17 15.999 17c3.33301 0.666992 8.66602 -4 15.999 -14
c72 -95.333 108 -205 108 -329zM783.001 742.999l-76 -132l-204 112l78 136z" />
    <glyph glyph-name="u0647" unicode="&#x647;" horiz-adv-x="766" arabic-form="isolated" 
d="M765 298c0 -34.667 -7.66504 -80.668 -22.998 -138.001c-17.333 -65.333 -36.333 -106 -57 -122c-34.667 -26.667 -89.667 -40 -165 -40s-145 11.333 -209 34c-86.667 30.667 -130 76.667 -130 138c0 39.333 20 95 60 167c32 57.333 61.667 101.333 89 132
c-18.667 26.667 -28 47.334 -28 62.001c0 20 18 50 54 90c28 30.667 54.333 55.667 79 75c3.33301 -64 33.666 -119.667 90.999 -167c97.333 -63.333 146.666 -95.333 147.999 -96c60.667 -47.333 91 -92.333 91 -135zM647.002 212.999c0 9.33301 -41 44.666 -123 105.999
l-147 110c-59.333 -86 -89 -143.667 -89 -173c0 -23.333 27 -44.666 81 -63.999c48.667 -17.333 95 -26 139 -26c92.667 0 139 15.667 139 47z" />
    <glyph glyph-name="u0648" unicode="&#x648;" horiz-adv-x="971" arabic-form="isolated" 
d="M970 128c0 -139.333 -45.6689 -271 -137.002 -395c-99.333 -135.333 -216.333 -203 -351 -203c-73.333 0 -147.666 31 -222.999 93c-66.667 54.667 -117 119 -151 193c-8 17.333 -12 29.333 -12 36c0 4.66699 1.66699 7 5 7c6.66699 0 17.667 -7.66699 33 -23
c100.667 -98.667 200.667 -148 300 -148c104 0 200.667 37.333 290 112c73.333 61.333 119.333 123 138 185c-95.333 7.33301 -161.666 22.333 -198.999 45c-52.667 32 -79 90.667 -79 176c0 60 18.667 125.667 56 197c41.333 78.667 85 118 131 118
c59.333 0 109.333 -53 150 -159c32.667 -85.333 49 -163.333 49 -234zM879.998 144c-8.66699 40.667 -22.332 77 -40.999 109c-24.667 42 -51.667 63 -81 63c-20.667 0 -38.834 -9.16699 -54.501 -27.5s-23.5 -37.833 -23.5 -58.5c0 -50 66.667 -78.667 200 -86z" />
    <glyph glyph-name="u0649" unicode="&#x649;" horiz-adv-x="1380" arabic-form="isolated" 
d="M1380 522c0 -26 -6.00098 -55.335 -18.001 -88.002c-12.667 -35.333 -28 -60.666 -46 -75.999c-16.667 32 -51.334 48 -104.001 48c-54.667 0 -128 -23.667 -220 -71c-100.667 -52 -158 -103 -172 -153c30.667 -10.667 134.334 -33.667 311.001 -69
c120 -24 181 -49.667 183 -77c1.33301 -17.333 2 -31 2 -41c0 -74 -16 -129 -48 -165c-48 -54 -142.333 -109.667 -283 -167c-159.333 -64.667 -306.333 -97 -441 -97c-112 0 -200.5 31.5 -265.5 94.5s-97.5 150.167 -97.5 261.5c0 79.333 26 172.666 78 279.999
c46.667 96 100.667 177.667 162 245c16.667 18 29 27 37 27c4.66699 0 7 -3 7 -9c0 -8.66699 -5.33301 -22 -16 -40c-56 -95.333 -91.333 -158.666 -106 -189.999c-40 -85.333 -60 -164.666 -60 -237.999c0 -82 29 -145.667 87 -191c52.667 -42 121 -63 205 -63
c100.667 0 219.334 23.333 356.001 70c116.667 40 205 80.333 265 121l-350 60c-80 14 -120 37.333 -120 70c0 68 21.333 138.667 64 212c39.333 68.667 88 124.667 146 168c132 98.667 251.333 148 358 148c57.333 0 86 -23.333 86 -70z" />
    <glyph glyph-name="u064A" unicode="&#x64a;" horiz-adv-x="1380" arabic-form="isolated" 
d="M1380 522c0 -26 -6.00098 -55.335 -18.001 -88.002c-12.667 -35.333 -28 -60.666 -46 -75.999c-16.667 32 -51.334 48 -104.001 48c-54.667 0 -128 -23.667 -220 -71c-100.667 -52 -158 -103 -172 -153c30.667 -10.667 134.334 -33.667 311.001 -69
c120 -24 181 -49.667 183 -77c1.33301 -17.333 2 -31 2 -41c0 -74 -16 -129 -48 -165c-48 -54 -142.333 -109.667 -283 -167c-159.333 -64.667 -306.333 -97 -441 -97c-112 0 -200.5 31.5 -265.5 94.5s-97.5 150.167 -97.5 261.5c0 79.333 26 172.666 78 279.999
c46.667 96 100.667 177.667 162 245c16.667 18 29 27 37 27c4.66699 0 7 -3 7 -9c0 -8.66699 -5.33301 -22 -16 -40c-56 -95.333 -91.333 -158.666 -106 -189.999c-40 -85.333 -60 -164.666 -60 -237.999c0 -82 29 -145.667 87 -191c52.667 -42 121 -63 205 -63
c100.667 0 219.334 23.333 356.001 70c116.667 40 205 80.333 265 121l-350 60c-80 14 -120 37.333 -120 70c0 68 21.333 138.667 64 212c39.333 68.667 88 124.667 146 168c132 98.667 251.333 148 358 148c57.333 0 86 -23.333 86 -70z" />
    <glyph glyph-name="u067E" unicode="&#x67e;" horiz-adv-x="1405" arabic-form="isolated" 
d="M1404 170c0 -79.333 -25.999 -134.333 -77.999 -165c-43.333 -26 -153 -49.333 -329 -70c-152 -18 -269.333 -27 -352 -27c-309.333 0 -464 92 -464 276c0 88 30.667 163.333 92 226c8 8 14 10.667 18 8c3.33301 -3.33301 2.66602 -10 -2.00098 -20
c-18.667 -40.667 -28 -86.667 -28 -138c0 -85.333 54 -140.666 162 -165.999c51.333 -12 144 -18 278 -18c106.667 0 226 9 358 27c146.667 20 231 43 253 69c-16.667 53.333 -53 107 -109 161l77 169c33.333 -24.667 63 -76.334 89 -155.001c23.333 -70 35 -129 35 -177z
M735.001 -556l76 132l204 -112l-78 -136zM534.001 -313l76 132l180 -99l57 99l204 -112l-78 -136l-178 103l-59 -103z" />
    <glyph glyph-name="u0686" unicode="&#x686;" horiz-adv-x="1017" arabic-form="isolated" 
d="M1066 -589c-97.333 -59.333 -163.667 -95.667 -199 -109c-51.333 -19.333 -124.333 -29 -219 -29c-296.667 0 -445 163.333 -445 490c0 211.333 76.667 392.333 230 543c-41.333 4 -69 6 -83 6c-42 0 -86 -20.333 -132 -61c-8.66699 -8 -17 -12 -25 -12
c-8.66699 0 -13 5 -13 15c0 6 2 13.333 6 22c64.667 140 142 210 232 210c36.667 0 91.167 -5.16699 163.5 -15.5s126.833 -15.5 163.5 -15.5c63.333 0 141.666 10.333 234.999 31c18 4 28.667 4.33301 32 1s2 -14.333 -4 -33l-48 -152c-61.333 -4 -138 -11.333 -230 -22
c-131.333 -15.333 -240.666 -65.666 -327.999 -150.999c-38 -37.333 -68.667 -87 -92 -149c-22.667 -59.333 -34 -117 -34 -173c0 -236.667 157 -355 471 -355c127.333 0 225.333 6.66699 294 20c30.667 6 53.667 9 69 9c17.333 0 26 -3.66699 26 -11
c0 -10.667 -23.333 -30.334 -70 -59.001zM599.999 -341.001l76 132l204 -112l-78 -136zM398.999 -98.001l76 132l180 -99l57 99l204 -112l-78 -136l-178 103l-59 -103z" />
    <glyph glyph-name="u0698" unicode="&#x698;" horiz-adv-x="928" arabic-form="isolated" 
d="M927 113c0 -128.667 -46.668 -245.331 -140.001 -349.998c-110.667 -124.667 -231 -187 -361 -187c-104 0 -202.667 58 -296 174c-20.667 26 -31 44 -31 54c0 5.33301 3 8 9 8c9.33301 0 49.333 -12.5 120 -37.5s124 -37.5 160 -37.5
c106.667 0 210.334 46.667 311.001 140c87.333 81.333 131 147.666 131 198.999c0 45.333 -58.667 124.666 -176 237.999l63 138c7.33301 16.667 18 18.667 32 6c41.333 -36.667 78 -81 110 -133c45.333 -73.333 68 -144 68 -212zM662.999 994.003l-76 -132l-204 112l78 136
zM863.999 751.003l-76 -132l-180 99l-57 -99l-204 112l78 136l178 -103l59 103z" />
    <glyph glyph-name="u06AF" unicode="&#x6af;" horiz-adv-x="1515" arabic-form="isolated" 
d="M1432 1369l-19 -92l-575 -230l17 84zM1514 178c0 -17.333 -3 -42 -9 -74c-7.33301 -38.667 -14.333 -61.334 -21 -68.001c-26 -24.667 -166.667 -44.667 -422 -60c-100 -6 -225 -9 -375 -9c-174 0 -298.333 17 -373 51c-88.667 40.667 -133 113.334 -133 218.001
c0 71.333 17 134.666 51 189.999c15.333 25.333 27.666 38 36.999 38c4.66699 0 7 -4.33301 7 -13c0 -7.33301 -1.66699 -16.333 -5 -27c-13.333 -41.333 -17.666 -78.666 -12.999 -111.999c11.333 -85.333 65 -139.333 161 -162c42 -10 126.667 -15 254 -15
c275.333 0 504 11.667 686 35l-245 234c-49.333 46.667 -122 108 -218 184l-42 -50c-113.333 102 -170 164 -170 186c0 39.333 10 80.333 30 123c24.667 53.333 58.667 89 102 107l688 286l-59 -210l-208 -67c-160.667 -54 -297.667 -105.667 -411 -155
c130 -103.333 253.333 -206 370 -308c212 -186 318 -293.333 318 -322z" />
    <glyph glyph-name="uFB57" unicode="&#x67e;" horiz-adv-x="1405" arabic-form="final" 
d="M1404 170c0 -79.333 -25.999 -134.333 -77.999 -165c-43.333 -26 -153 -49.333 -329 -70c-152 -18 -269.333 -27 -352 -27c-309.333 0 -464 92 -464 276c0 88 30.667 163.333 92 226c8 8 14 10.667 18 8c3.33301 -3.33301 2.66602 -10 -2.00098 -20
c-18.667 -40.667 -28 -86.667 -28 -138c0 -85.333 54 -140.666 162 -165.999c51.333 -12 144 -18 278 -18c106.667 0 226 9 358 27c146.667 20 231 43 253 69c-16.667 53.333 -53 107 -109 161l77 169c33.333 -24.667 63 -76.334 89 -155.001c23.333 -70 35 -129 35 -177z
M735.001 -556l76 132l204 -112l-78 -136zM534.001 -313l76 132l180 -99l57 99l204 -112l-78 -136l-178 103l-59 -103z" />
    <glyph glyph-name="uFB58" unicode="&#x67e;" horiz-adv-x="580" arabic-form="initial" 
d="M573 152c0 -66 -20.333 -109.334 -61 -130.001c-38 -19.333 -129.667 -29 -275 -29c-22 0 -54.667 1.33301 -98 4s-76 4 -98 4h-81c-33.333 0 -50 15.667 -50 47v120h126c20 0 49.5 -1.33301 88.5 -4s68.5 -4 88.5 -4c107.333 0 175 3.66699 203 11
c17.333 4.66699 26 15 26 31c0 20.667 -36.667 81.334 -110 182.001l84 180c44.667 -52 82 -117 112 -195s45 -150.333 45 -217zM235 -516.001l76 132l204 -112l-78 -136zM34 -273.001l76 132l180 -99l57 99l204 -112l-78 -136l-178 103l-59 -103z" />
    <glyph glyph-name="uFB59" unicode="&#x67e;" horiz-adv-x="580" arabic-form="medial" 
d="M573 152c0 -66 -20.333 -109.334 -61 -130.001c-38 -19.333 -129.667 -29 -275 -29c-22 0 -54.667 1.33301 -98 4s-76 4 -98 4h-81c-33.333 0 -50 15.667 -50 47v120h126c20 0 49.5 -1.33301 88.5 -4s68.5 -4 88.5 -4c107.333 0 175 3.66699 203 11
c17.333 4.66699 26 15 26 31c0 20.667 -36.667 81.334 -110 182.001l84 180c44.667 -52 82 -117 112 -195s45 -150.333 45 -217zM235 -516.001l76 132l204 -112l-78 -136zM34 -273.001l76 132l180 -99l57 99l204 -112l-78 -136l-178 103l-59 -103z" />
    <glyph glyph-name="uFB7B" unicode="&#x686;" horiz-adv-x="1121" arabic-form="final" 
d="M1151 1l-206.002 -0.000976562c-148.667 0 -223 65 -223 195c0 25.333 2.66699 53.333 8 84c-132.667 -12 -241 -60.333 -325 -145c-86 -86.667 -129 -196 -129 -328c0 -236.667 157 -355 471 -355c127.333 0 225.333 6.66699 294 20c30.667 6 53.667 9 69 9
c17.333 0 26 -3.66699 26 -11c0 -10.667 -23.333 -30.334 -70 -59.001c-97.333 -59.333 -163.666 -95.666 -198.999 -108.999c-51.333 -19.333 -124.333 -29 -219 -29c-296.667 0 -445 163.333 -445 490c0 211.333 76.667 392.333 230 543c-41.333 4 -69 6 -83 6
c-42 0 -86 -20.333 -132 -61c-8.66699 -8 -17 -12 -25 -12c-8.66699 0 -13 5 -13 15c0 6 2 13.333 6 22c64.667 140 142 210 232 210c36.667 0 91.167 -5.16699 163.5 -15.5s126.833 -15.5 163.5 -15.5c63.333 0 141.666 10.333 234.999 31c18 4 28.667 4.33301 32 1
s2 -14.333 -4 -33l-48 -152c-37.333 -4.66699 -90.666 -9.66699 -159.999 -15c-1.33301 -13.333 -2 -24 -2 -32c0 -47.333 38.333 -75.666 115 -84.999c10.667 -1.33301 69.334 -2 176.001 -2h62v-167zM549.998 -391.001l76 132l204 -112l-78 -136zM348.998 -148.001l76 132
l180 -99l57 99l204 -112l-78 -136l-178 103l-59 -103z" />
    <glyph glyph-name="uFB7C" unicode="&#x686;" horiz-adv-x="1200" arabic-form="initial" 
d="M1200 1l-40 -0.000976562c-80.667 0 -202 -2.66699 -364 -8s-283.333 -8 -364 -8c-42.667 0 -106.5 2.66699 -191.5 8s-148.833 8 -191.5 8h-89c-33.333 0 -50 16.667 -50 50v117h140c37.333 0 93.333 -2.66699 168 -8s130.667 -8 168 -8c178.667 0 323.334 1 434.001 3
c-104.667 82.667 -169.667 132.334 -195 149.001c-82.667 52.667 -157.667 79 -225 79c-61.333 0 -120 -16.667 -176 -50c-12.667 -7.33301 -22.667 -11 -30 -11c-6 0 -9 3.33301 -9 10c0 8 4 19.333 12 34c61.333 112 150.666 168 267.999 168
c74 0 154.667 -31.667 242 -95l238 -176c86 -63.333 157 -95 213 -95h42v-167zM600 -481.001l76 132l204 -112l-78 -136zM399 -238.001l76 132l180 -99l57 99l204 -112l-78 -136l-178 103l-59 -103z" />
    <glyph glyph-name="uFB7D" unicode="&#x686;" horiz-adv-x="1200" arabic-form="medial" 
d="M1200 1l-40 -0.000976562c-80.667 0 -202 -2.66699 -364 -8s-283.333 -8 -364 -8c-42.667 0 -106.5 2.66699 -191.5 8s-148.833 8 -191.5 8h-89c-33.333 0 -50 16.667 -50 50v117h140c37.333 0 93.333 -2.66699 168 -8s130.667 -8 168 -8c178.667 0 323.334 1 434.001 3
c-104.667 82.667 -169.667 132.334 -195 149.001c-82.667 52.667 -157.667 79 -225 79c-61.333 0 -120 -16.667 -176 -50c-12.667 -7.33301 -22.667 -11 -30 -11c-6 0 -9 3.33301 -9 10c0 8 4 19.333 12 34c61.333 112 150.666 168 267.999 168
c74 0 154.667 -31.667 242 -95l238 -176c86 -63.333 157 -95 213 -95h42v-167zM600 -481.001l76 132l204 -112l-78 -136zM399 -238.001l76 132l180 -99l57 99l204 -112l-78 -136l-178 103l-59 -103z" />
    <glyph glyph-name="uFB8B" unicode="&#x698;" horiz-adv-x="928" arabic-form="final" 
d="M927 113c0 -128.667 -46.668 -245.331 -140.001 -349.998c-110.667 -124.667 -231 -187 -361 -187c-104 0 -202.667 58 -296 174c-20.667 26 -31 44 -31 54c0 5.33301 3 8 9 8c9.33301 0 49.333 -12.5 120 -37.5s124 -37.5 160 -37.5
c106.667 0 210.334 46.667 311.001 140c87.333 81.333 131 147.666 131 198.999c0 45.333 -58.667 124.666 -176 237.999l63 138c7.33301 16.667 18 18.667 32 6c41.333 -36.667 78 -81 110 -133c45.333 -73.333 68 -144 68 -212zM662.999 994.003l-76 -132l-204 112l78 136
zM863.999 751.003l-76 -132l-180 99l-57 -99l-204 112l78 136l178 -103l59 103z" />
    <glyph glyph-name="uFEDA" unicode="&#x6a9;" horiz-adv-x="1515" arabic-form="final" 
d="M1514 178c0 -17.333 -2.99902 -42.001 -8.99902 -74.001c-7.33301 -38.667 -14.333 -61.334 -21 -68.001c-26 -24.667 -166.667 -44.667 -422 -60c-100 -6 -225 -9 -375 -9c-174 0 -298.333 17 -373 51c-88.667 40.667 -133 113.334 -133 218.001
c0 71.333 17 134.666 51 189.999c15.333 25.333 27.666 38 36.999 38c4.66699 0 7 -4.33301 7 -13c0 -7.33301 -1.66699 -16.333 -5 -27c-13.333 -41.333 -17.666 -78.666 -12.999 -111.999c11.333 -85.333 65 -139.333 161 -162c42 -10 126.667 -15 254 -15
c275.333 0 504 11.667 686 35l-245 234c-49.333 46.667 -122 108 -218 184l-42 -50c-113.333 102 -170 164 -170 186c0 38.667 10 79.334 30 122.001c25.333 53.333 59.333 89.333 102 108l698 306l-56 -200c-120.667 -44.667 -331.334 -128.667 -632.001 -252
c130 -103.333 253.333 -206 370 -308c212 -186 318 -293.333 318 -322z" />
    <glyph glyph-name="uFEDB" unicode="&#x6a9;" horiz-adv-x="845" arabic-form="initial" 
d="M844 178c0 -17.333 -2.99707 -42 -8.99707 -74c-7.33301 -38.667 -14.333 -61.334 -21 -68.001c-30.667 -29.333 -171.334 -44 -422.001 -44c-39.333 0 -98 1.5 -176 4.5s-136.667 4.5 -176 4.5h-79c-34 0 -51 16.667 -51 50v117h182
c-10.667 0 98.666 -1.33301 327.999 -4c115.333 -1.33301 205 0.666992 269 6l-245 234c-49.333 46.667 -122 108 -218 184l-42 -50c-113.333 102 -170 164 -170 186c0 38.667 10 79.334 30 122.001c25.333 53.333 59.333 89.333 102 108l698 306l-56 -200
c-120.667 -44.667 -331.334 -128.667 -632.001 -252c130 -103.333 253.333 -206 370 -308c212 -186 318 -293.333 318 -322z" />
    <glyph glyph-name="uFEDC" unicode="&#x6a9;" horiz-adv-x="845" arabic-form="medial" 
d="M844 178c0 -17.333 -2.99707 -42 -8.99707 -74c-7.33301 -38.667 -14.333 -61.334 -21 -68.001c-30.667 -29.333 -171.334 -44 -422.001 -44c-39.333 0 -98 1.5 -176 4.5s-136.667 4.5 -176 4.5h-79c-34 0 -51 16.667 -51 50v117h182
c-10.667 0 98.666 -1.33301 327.999 -4c115.333 -1.33301 205 0.666992 269 6l-245 234c-49.333 46.667 -122 108 -218 184l-42 -50c-113.333 102 -170 164 -170 186c0 38.667 10 79.334 30 122.001c25.333 53.333 59.333 89.333 102 108l698 306l-56 -200
c-120.667 -44.667 -331.334 -128.667 -632.001 -252c130 -103.333 253.333 -206 370 -308c212 -186 318 -293.333 318 -322z" />
    <glyph glyph-name="uFB93" unicode="&#x6af;" horiz-adv-x="1515" arabic-form="final" 
d="M1432 1369l-19 -92l-575 -230l17 84zM1514 178c0 -17.333 -3 -42 -9 -74c-7.33301 -38.667 -14.333 -61.334 -21 -68.001c-26 -24.667 -166.667 -44.667 -422 -60c-100 -6 -225 -9 -375 -9c-174 0 -298.333 17 -373 51c-88.667 40.667 -133 113.334 -133 218.001
c0 71.333 17 134.666 51 189.999c15.333 25.333 27.666 38 36.999 38c4.66699 0 7 -4.33301 7 -13c0 -7.33301 -1.66699 -16.333 -5 -27c-13.333 -41.333 -17.666 -78.666 -12.999 -111.999c11.333 -85.333 65 -139.333 161 -162c42 -10 126.667 -15 254 -15
c275.333 0 504 11.667 686 35l-245 234c-49.333 46.667 -122 108 -218 184l-42 -50c-113.333 102 -170 164 -170 186c0 39.333 10 80.333 30 123c24.667 53.333 58.667 89 102 107l688 286l-59 -210l-208 -67c-160.667 -54 -297.667 -105.667 -411 -155
c130 -103.333 253.333 -206 370 -308c212 -186 318 -293.333 318 -322z" />
    <glyph glyph-name="uFB94" unicode="&#x6af;" horiz-adv-x="845" arabic-form="initial" 
d="M762 1369l-19 -92l-575 -230l17 84zM844 178c0 -17.333 -2.99902 -41.999 -8.99902 -73.999c-7.33301 -38.667 -14.333 -61.334 -21 -68.001c-30.667 -29.333 -171.334 -44 -422.001 -44c-39.333 0 -98 1.5 -176 4.5s-136.667 4.5 -176 4.5h-79c-34 0 -51 16.667 -51 50
v117h182c-10.667 0 98.666 -1.33301 327.999 -4c115.333 -1.33301 205 0.666992 269 6l-245 234c-49.333 46.667 -122 108 -218 184l-42 -50c-113.333 102 -170 164 -170 186c0 39.333 10 80.333 30 123c24.667 53.333 58.667 89 102 107l688 286l-56 -200
c-117.333 -38 -324.666 -115.333 -621.999 -232c130 -103.333 253.333 -206 370 -308c212 -186 318 -293.333 318 -322z" />
    <glyph glyph-name="uFB95" unicode="&#x6af;" horiz-adv-x="845" arabic-form="medial" 
d="M762 1369l-19 -92l-575 -230l17 84zM844 178c0 -17.333 -2.99902 -41.999 -8.99902 -73.999c-7.33301 -38.667 -14.333 -61.334 -21 -68.001c-30.667 -29.333 -171.334 -44 -422.001 -44c-39.333 0 -98 1.5 -176 4.5s-136.667 4.5 -176 4.5h-79c-34 0 -51 16.667 -51 50
v117h182c-10.667 0 98.666 -1.33301 327.999 -4c115.333 -1.33301 205 0.666992 269 6l-245 234c-49.333 46.667 -122 108 -218 184l-42 -50c-113.333 102 -170 164 -170 186c0 39.333 10 80.333 30 123c24.667 53.333 58.667 89 102 107l688 286l-56 -200
c-117.333 -38 -324.666 -115.333 -621.999 -232c130 -103.333 253.333 -206 370 -308c212 -186 318 -293.333 318 -322z" />
    <glyph glyph-name="uFE94" unicode="&#x6c0;" horiz-adv-x="822" arabic-form="final" 
d="M853 2h-144.001c-74.667 0 -123 37 -145 111c-3.33301 11.333 -9.66602 71.666 -18.999 180.999c-53.333 -68.667 -87 -103 -101 -103c-49.333 0 -102.666 16.333 -159.999 49c-62 35.333 -97.333 76 -106 122c26 72.667 66.333 141.334 121 206.001
c21.333 25.333 93 57.333 215 96l-5 84l88 112c10 -56 20 -208 30 -456c4 -95.333 10.667 -157.333 20 -186c11.333 -33.333 36.666 -50 75.999 -50h130v-166zM541.999 372c-3.33301 54.667 -8.66602 127.333 -15.999 218c-42 -42 -79 -71.667 -111 -89
c-26 -14 -64.333 -27.667 -115 -41c54.667 -68.667 119 -103 193 -103c21.333 0 37.666 5 48.999 15zM626.999 1069c-7.33301 -33.333 -18.999 -69.668 -34.999 -109.001c-90.667 -20 -176.334 -56.333 -257.001 -109c-29.333 -19.333 -46.333 -29 -51 -29
c-25.333 0 -35.666 8.33301 -30.999 25c15.333 32.667 52.333 71 111 115c-57.333 58.667 -89.333 103.334 -96 134.001c22 58.667 43 98.334 63 119.001c28 28.667 69 43 123 43c34.667 0 63 -4 85 -12v-104c-36 17.333 -71.667 26 -107 26c-32 0 -60.667 -7.33301 -86 -22
c10.667 -23.333 31 -47.333 61 -72s58 -41.334 84 -50.001c17.333 6.66699 62.666 21.667 135.999 45z" />
    <glyph glyph-name="uFEF2" unicode="&#x6cc;" horiz-adv-x="1230" arabic-form="final" 
d="M1260 1l-55.999 -0.00195312c-48 0 -99 -5 -153 -15c-72.667 -13.333 -117.667 -32.666 -135 -57.999c26.667 -18 87 -38.667 181 -62c78 -19.333 117 -36 117 -50c0 -91.333 -17.333 -158.666 -52 -201.999c-52 -64.667 -139 -118 -261 -160
c-112.667 -38.667 -222.334 -58 -329.001 -58c-116 0 -208.333 26.667 -277 80c-75.333 59.333 -113 145.333 -113 258c0 151.333 53 286.666 159 405.999c21.333 24 32 27.333 32 10c0 -5.33301 -2.33301 -12.666 -7 -21.999c-65.333 -128.667 -98 -234 -98 -316
c0 -84 37 -146.333 111 -187c58.667 -32.667 133.667 -49 225 -49c62.667 0 137 9.33301 223 28c102 22 173.667 49.333 215 82c-34 10 -84.333 26.333 -151 49c-68.667 26 -103 57.667 -103 95c0 122.667 51 213.667 153 273c74.667 43.333 163 65 265 65h54v-167z" />
    <glyph glyph-name="uFEF3" unicode="&#x6cc;" horiz-adv-x="580" arabic-form="initial" 
d="M573 152c0 -66 -20.333 -109.334 -61 -130.001c-38 -19.333 -129.667 -29 -275 -29c-22 0 -54.667 1.33301 -98 4s-76 4 -98 4h-81c-33.333 0 -50 15.667 -50 47v120h126c20 0 49.5 -1.33301 88.5 -4s68.5 -4 88.5 -4c107.333 0 175 3.66699 203 11
c17.333 4.66699 26 15 26 31c0 20.667 -36.667 81.334 -110 182.001l84 180c44.667 -52 82 -117 112 -195s45 -150.333 45 -217zM553 -387.001l-76 -132l-187 103l-57 -99l-204 112l78 136l185 -106l59 102z" />
    <glyph glyph-name="uFEF4" unicode="&#x6cc;" horiz-adv-x="580" arabic-form="medial" 
d="M573 152c0 -66 -20.333 -109.334 -61 -130.001c-38 -19.333 -129.667 -29 -275 -29c-22 0 -54.667 1.33301 -98 4s-76 4 -98 4h-81c-33.333 0 -50 15.667 -50 47v120h126c20 0 49.5 -1.33301 88.5 -4s68.5 -4 88.5 -4c107.333 0 175 3.66699 203 11
c17.333 4.66699 26 15 26 31c0 20.667 -36.667 81.334 -110 182.001l84 180c44.667 -52 82 -117 112 -195s45 -150.333 45 -217zM553 -387.001l-76 -132l-187 103l-57 -99l-204 112l78 136l185 -106l59 102z" />
    <glyph glyph-name="Hcircumflex" unicode="&#x622;" horiz-adv-x="683" arabic-form="final" 
d="M713 1h-113c-84.667 0 -140.334 32 -167.001 96c-17.333 41.333 -34 148 -50 320l-62 667l137 168c8.66699 10.667 13.334 9.66699 14.001 -3l38 -846c4.66699 -102 13 -165.667 25 -191c14 -29.333 48.667 -44 104 -44h74v-167zM704 1503
c-30 -91.333 -73.6709 -137.001 -131.004 -137.001c-35.333 0 -87.333 7.5 -156 22.5s-120.667 22.5 -156 22.5c-27.333 0 -58.666 -16.667 -93.999 -50c-7.33301 -6.66699 -13.333 -8.66699 -18 -6c-4.66699 3.33301 -5.66699 10.666 -3 21.999
c6 28.667 19.333 55.334 40 80.001c30.667 37.333 69.334 56 116.001 56c28.667 0 70.834 -7.5 126.501 -22.5s97.834 -22.5 126.501 -22.5c58 0 101.333 17.333 130 52c4 4.66699 8.66699 7.33398 14 8.00098c5.33301 0 8 -3.66699 8 -11c0 -3.33301 -1 -8 -3 -14z" />
    <glyph glyph-name="uFE84" unicode="&#x623;" horiz-adv-x="613" arabic-form="final" 
d="M643 1h-113c-84.667 0 -140.334 32 -167.001 96c-17.333 41.333 -34 148 -50 320l-62 667l137 168c8.66699 10.667 13.334 9.66699 14.001 -3l38 -846c4.66699 -102 13 -165.667 25 -191c14 -29.333 48.667 -44 104 -44h74v-167zM517 1499
c-7.33301 -33.333 -18.999 -69.668 -34.999 -109.001c-90.667 -20 -176.334 -56.333 -257.001 -109c-29.333 -19.333 -46.333 -29 -51 -29c-25.333 0 -35.666 8.33301 -30.999 25c15.333 32.667 52.333 71 111 115c-57.333 58.667 -89.333 103.334 -96 134.001
c22 58.667 43 98.334 63 119.001c28 28.667 69 43 123 43c34.667 0 63 -4 85 -12v-104c-36 17.333 -71.667 26 -107 26c-32 0 -60.667 -7.33301 -86 -22c10.667 -23.333 31 -47.333 61 -72s58 -41.334 84 -50.001c17.333 6.66699 62.666 21.667 135.999 45z" />
    <glyph glyph-name="uFE86" unicode="&#x624;" horiz-adv-x="971" arabic-form="final" 
d="M970 128c0 -139.333 -45.6689 -271 -137.002 -395c-99.333 -135.333 -216.333 -203 -351 -203c-73.333 0 -147.666 31 -222.999 93c-66.667 54.667 -117 119 -151 193c-8 17.333 -12 29.333 -12 36c0 4.66699 1.66699 7 5 7c6.66699 0 17.667 -7.66699 33 -23
c100.667 -98.667 200.667 -148 300 -148c104 0 200.667 37.333 290 112c73.333 61.333 119.333 123 138 185c-95.333 7.33301 -161.666 22.333 -198.999 45c-52.667 32 -79 90.667 -79 176c0 60 18.667 125.667 56 197c41.333 78.667 85 118 131 118
c59.333 0 109.333 -53 150 -159c32.667 -85.333 49 -163.333 49 -234zM879.998 144c-8.66699 40.667 -22.332 77 -40.999 109c-24.667 42 -51.667 63 -81 63c-20.667 0 -38.834 -9.16699 -54.501 -27.5s-23.5 -37.833 -23.5 -58.5c0 -50 66.667 -78.667 200 -86zM882 884
c-7.33301 -33.333 -18.999 -69.668 -34.999 -109.001c-90.667 -20 -176.334 -56.333 -257.001 -109c-29.333 -19.333 -46.333 -29 -51 -29c-25.333 0 -35.666 8.33301 -30.999 25c15.333 32.667 52.333 71 111 115c-57.333 58.667 -89.333 103.334 -96 134.001
c22 58.667 43 98.334 63 119.001c28 28.667 69 43 123 43c34.667 0 63 -4 85 -12v-104c-36 17.333 -71.667 26 -107 26c-32 0 -60.667 -7.33301 -86 -22c10.667 -23.333 31 -47.333 61 -72s58 -41.334 84 -50.001c17.333 6.66699 62.666 21.667 135.999 45z" />
    <glyph glyph-name="uFE88" unicode="&#x625;" horiz-adv-x="613" arabic-form="final" 
d="M643 1h-113c-84.667 0 -140.334 32 -167.001 96c-17.333 41.333 -34 148 -50 320l-62 667l137 168c8.66699 10.667 13.334 9.66699 14.001 -3l38 -846c4.66699 -102 13 -165.667 25 -191c14 -29.333 48.667 -44 104 -44h74v-167zM587 -331
c-7.33301 -33.333 -18.999 -69.668 -34.999 -109.001c-90.667 -20 -176.334 -56.333 -257.001 -109c-29.333 -19.333 -46.333 -29 -51 -29c-25.333 0 -35.666 8.33301 -30.999 25c15.333 32.667 52.333 71 111 115c-57.333 58.667 -89.333 103.334 -96 134.001
c22 58.667 43 98.334 63 119.001c28 28.667 69 43 123 43c34.667 0 63 -4 85 -12v-104c-36 17.333 -71.667 26 -107 26c-32 0 -60.667 -7.33301 -86 -22c10.667 -23.333 31 -47.333 61 -72s58 -41.334 84 -50.001c17.333 6.66699 62.666 21.667 135.999 45z" />
    <glyph glyph-name="uFE8A" unicode="&#x626;" horiz-adv-x="1230" arabic-form="final" 
d="M1260 1l-55.999 -0.00195312c-48 0 -99 -5 -153 -15c-72.667 -13.333 -117.667 -32.666 -135 -57.999c26.667 -18 87 -38.667 181 -62c78 -19.333 117 -36 117 -50c0 -91.333 -17.333 -158.666 -52 -201.999c-52 -64.667 -139 -118 -261 -160
c-112.667 -38.667 -222.334 -58 -329.001 -58c-116 0 -208.333 26.667 -277 80c-75.333 59.333 -113 145.333 -113 258c0 151.333 53 286.666 159 405.999c21.333 24 32 27.333 32 10c0 -5.33301 -2.33301 -12.666 -7 -21.999c-65.333 -128.667 -98 -234 -98 -316
c0 -84 37 -146.333 111 -187c58.667 -32.667 133.667 -49 225 -49c62.667 0 137 9.33301 223 28c102 22 173.667 49.333 215 82c-34 10 -84.333 26.333 -151 49c-68.667 26 -103 57.667 -103 95c0 122.667 51 213.667 153 273c74.667 43.333 163 65 265 65h54v-167z
M567.001 468.998c-7.33301 -33.333 -18.999 -69.668 -34.999 -109.001c-90.667 -20 -176.334 -56.333 -257.001 -109c-29.333 -19.333 -46.333 -29 -51 -29c-25.333 0 -35.666 8.33301 -30.999 25c15.333 32.667 52.333 71 111 115
c-57.333 58.667 -89.333 103.334 -96 134.001c22 58.667 43 98.334 63 119.001c28 28.667 69 43 123 43c34.667 0 63 -4 85 -12v-104c-36 17.333 -71.667 26 -107 26c-32 0 -60.667 -7.33301 -86 -22c10.667 -23.333 31 -47.333 61 -72s58 -41.334 84 -50.001
c17.333 6.66699 62.666 21.667 135.999 45z" />
    <glyph glyph-name="uFE8B" unicode="&#x626;" horiz-adv-x="544" arabic-form="initial" 
d="M573 152c0 -66 -20.333 -109.334 -61 -130.001c-38 -19.333 -129.667 -29 -275 -29c-22 0 -54.667 1.33301 -98 4s-76 4 -98 4h-81c-33.333 0 -50 15.667 -50 47v120h126c20 0 49.5 -1.33301 88.5 -4s68.5 -4 88.5 -4c107.333 0 175 3.66699 203 11
c17.333 4.66699 26 15 26 31c0 20.667 -36.667 81.334 -110 182.001l84 180c44.667 -52 82 -117 112 -195s45 -150.333 45 -217zM472 913.999c-7.33301 -33.333 -18.999 -69.668 -34.999 -109.001c-90.667 -20 -176.334 -56.333 -257.001 -109
c-29.333 -19.333 -46.333 -29 -51 -29c-25.333 0 -35.666 8.33301 -30.999 25c15.333 32.667 52.333 71 111 115c-57.333 58.667 -89.333 103.334 -96 134.001c22 58.667 43 98.334 63 119.001c28 28.667 69 43 123 43c34.667 0 63 -4 85 -12v-104
c-36 17.333 -71.667 26 -107 26c-32 0 -60.667 -7.33301 -86 -22c10.667 -23.333 31 -47.333 61 -72s58 -41.334 84 -50.001c17.333 6.66699 62.666 21.667 135.999 45z" />
    <glyph glyph-name="uFE8C" unicode="&#x626;" horiz-adv-x="544" arabic-form="medial" 
d="M573 152c0 -66 -20.333 -109.334 -61 -130.001c-38 -19.333 -129.667 -29 -275 -29c-22 0 -54.667 1.33301 -98 4s-76 4 -98 4h-81c-33.333 0 -50 15.667 -50 47v120h126c20 0 49.5 -1.33301 88.5 -4s68.5 -4 88.5 -4c107.333 0 175 3.66699 203 11
c17.333 4.66699 26 15 26 31c0 20.667 -36.667 81.334 -110 182.001l84 180c44.667 -52 82 -117 112 -195s45 -150.333 45 -217zM472 913.999c-7.33301 -33.333 -18.999 -69.668 -34.999 -109.001c-90.667 -20 -176.334 -56.333 -257.001 -109
c-29.333 -19.333 -46.333 -29 -51 -29c-25.333 0 -35.666 8.33301 -30.999 25c15.333 32.667 52.333 71 111 115c-57.333 58.667 -89.333 103.334 -96 134.001c22 58.667 43 98.334 63 119.001c28 28.667 69 43 123 43c34.667 0 63 -4 85 -12v-104
c-36 17.333 -71.667 26 -107 26c-32 0 -60.667 -7.33301 -86 -22c10.667 -23.333 31 -47.333 61 -72s58 -41.334 84 -50.001c17.333 6.66699 62.666 21.667 135.999 45z" />
    <glyph glyph-name="uFE8E" unicode="&#x627;" horiz-adv-x="543" arabic-form="final" 
d="M573 1h-113c-84.667 0 -140.334 32 -167.001 96c-17.333 41.333 -34 148 -50 320l-62 667l137 168c8.66699 10.667 13.334 9.66699 14.001 -3l38 -846c4.66699 -102 13 -165.667 25 -191c14 -29.333 48.667 -44 104 -44h74v-167z" />
    <glyph glyph-name="uFE90" unicode="&#x628;" horiz-adv-x="1405" arabic-form="final" 
d="M1404 170c0 -79.333 -25.999 -134.333 -77.999 -165c-43.333 -26 -153 -49.333 -329 -70c-152 -18 -269.333 -27 -352 -27c-309.333 0 -464 92 -464 276c0 88 30.667 163.333 92 226c8 8 14 10.667 18 8c3.33301 -3.33301 2.66602 -10 -2.00098 -20
c-18.667 -40.667 -28 -86.667 -28 -138c0 -85.333 54 -140.666 162 -165.999c51.333 -12 144 -18 278 -18c106.667 0 226 9 358 27c146.667 20 231 43 253 69c-16.667 53.333 -53 107 -109 161l77 169c33.333 -24.667 63 -76.334 89 -155.001c23.333 -70 35 -129 35 -177z
M928.001 -432l-76 -132l-204 112l78 136z" />
    <glyph glyph-name="uFE91" unicode="&#x628;" horiz-adv-x="580" arabic-form="initial" 
d="M573 152c0 -66 -20.333 -109.334 -61 -130.001c-38 -19.333 -129.667 -29 -275 -29c-22 0 -54.667 1.33301 -98 4s-76 4 -98 4h-81c-33.333 0 -50 15.667 -50 47v120h126c20 0 49.5 -1.33301 88.5 -4s68.5 -4 88.5 -4c107.333 0 175 3.66699 203 11
c17.333 4.66699 26 15 26 31c0 20.667 -36.667 81.334 -110 182.001l84 180c44.667 -52 82 -117 112 -195s45 -150.333 45 -217zM418 -382.001l-76 -132l-204 112l78 136z" />
    <glyph glyph-name="uFE92" unicode="&#x628;" horiz-adv-x="580" arabic-form="medial" 
d="M573 152c0 -66 -20.333 -109.334 -61 -130.001c-38 -19.333 -129.667 -29 -275 -29c-22 0 -54.667 1.33301 -98 4s-76 4 -98 4h-81c-33.333 0 -50 15.667 -50 47v120h126c20 0 49.5 -1.33301 88.5 -4s68.5 -4 88.5 -4c107.333 0 175 3.66699 203 11
c17.333 4.66699 26 15 26 31c0 20.667 -36.667 81.334 -110 182.001l84 180c44.667 -52 82 -117 112 -195s45 -150.333 45 -217zM418 -382.001l-76 -132l-204 112l78 136z" />
    <glyph glyph-name="uFE96" unicode="&#x62a;" horiz-adv-x="1405" arabic-form="final" 
d="M1404 170c0 -79.333 -25.999 -134.333 -77.999 -165c-43.333 -26 -153 -49.333 -329 -70c-152 -18 -269.333 -27 -352 -27c-309.333 0 -464 92 -464 276c0 88 30.667 163.333 92 226c8 8 14 10.667 18 8c3.33301 -3.33301 2.66602 -10 -2.00098 -20
c-18.667 -40.667 -28 -86.667 -28 -138c0 -85.333 54 -140.666 162 -165.999c51.333 -12 144 -18 278 -18c106.667 0 226 9 358 27c146.667 20 231 43 253 69c-16.667 53.333 -53 107 -109 161l77 169c33.333 -24.667 63 -76.334 89 -155.001c23.333 -70 35 -129 35 -177z
M1048 618l-76 -132l-187 103l-57 -99l-204 112l78 136l185 -106l59 102z" />
    <glyph glyph-name="uFE97" unicode="&#x62a;" horiz-adv-x="580" arabic-form="initial" 
d="M573 152c0 -66 -20.333 -109.334 -61 -130.001c-38 -19.333 -129.667 -29 -275 -29c-22 0 -54.667 1.33301 -98 4s-76 4 -98 4h-81c-33.333 0 -50 15.667 -50 47v120h126c20 0 49.5 -1.33301 88.5 -4s68.5 -4 88.5 -4c107.333 0 175 3.66699 203 11
c17.333 4.66699 26 15 26 31c0 20.667 -36.667 81.334 -110 182.001l84 180c44.667 -52 82 -117 112 -195s45 -150.333 45 -217zM553 907.999l-76 -132l-187 103l-57 -99l-204 112l78 136l185 -106l59 102z" />
    <glyph glyph-name="uFE98" unicode="&#x62a;" horiz-adv-x="580" arabic-form="medial" 
d="M573 152c0 -66 -20.333 -109.334 -61 -130.001c-38 -19.333 -129.667 -29 -275 -29c-22 0 -54.667 1.33301 -98 4s-76 4 -98 4h-81c-33.333 0 -50 15.667 -50 47v120h126c20 0 49.5 -1.33301 88.5 -4s68.5 -4 88.5 -4c107.333 0 175 3.66699 203 11
c17.333 4.66699 26 15 26 31c0 20.667 -36.667 81.334 -110 182.001l84 180c44.667 -52 82 -117 112 -195s45 -150.333 45 -217zM553 907.999l-76 -132l-187 103l-57 -99l-204 112l78 136l185 -106l59 102z" />
    <glyph glyph-name="uFE9A" unicode="&#x62b;" horiz-adv-x="1405" arabic-form="final" 
d="M1404 170c0 -79.333 -25.999 -134.333 -77.999 -165c-43.333 -26 -153 -49.333 -329 -70c-152 -18 -269.333 -27 -352 -27c-309.333 0 -464 92 -464 276c0 88 30.667 163.333 92 226c8 8 14 10.667 18 8c3.33301 -3.33301 2.66602 -10 -2.00098 -20
c-18.667 -40.667 -28 -86.667 -28 -138c0 -85.333 54 -140.666 162 -165.999c51.333 -12 144 -18 278 -18c106.667 0 226 9 358 27c146.667 20 231 43 253 69c-16.667 53.333 -53 107 -109 161l77 169c33.333 -24.667 63 -76.334 89 -155.001c23.333 -70 35 -129 35 -177z
M844.001 862l-76 -132l-204 112l78 136zM1045 619l-76 -132l-180 99l-57 -99l-204 112l78 136l178 -103l59 103z" />
    <glyph glyph-name="uFE9B" unicode="&#x62b;" horiz-adv-x="580" arabic-form="initial" 
d="M573 152c0 -66 -20.333 -109.334 -61 -130.001c-38 -19.333 -129.667 -29 -275 -29c-22 0 -54.667 1.33301 -98 4s-76 4 -98 4h-81c-33.333 0 -50 15.667 -50 47v120h126c20 0 49.5 -1.33301 88.5 -4s68.5 -4 88.5 -4c107.333 0 175 3.66699 203 11
c17.333 4.66699 26 15 26 31c0 20.667 -36.667 81.334 -110 182.001l84 180c44.667 -52 82 -117 112 -195s45 -150.333 45 -217zM349 1067l-76 -132l-204 112l78 136zM550 823.999l-76 -132l-180 99l-57 -99l-204 112l78 136l178 -103l59 103z" />
    <glyph glyph-name="uFE9C" unicode="&#x62b;" horiz-adv-x="580" arabic-form="medial" 
d="M573 152c0 -66 -20.333 -109.334 -61 -130.001c-38 -19.333 -129.667 -29 -275 -29c-22 0 -54.667 1.33301 -98 4s-76 4 -98 4h-81c-33.333 0 -50 15.667 -50 47v120h126c20 0 49.5 -1.33301 88.5 -4s68.5 -4 88.5 -4c107.333 0 175 3.66699 203 11
c17.333 4.66699 26 15 26 31c0 20.667 -36.667 81.334 -110 182.001l84 180c44.667 -52 82 -117 112 -195s45 -150.333 45 -217zM349 1067l-76 -132l-204 112l78 136zM550 823.999l-76 -132l-180 99l-57 -99l-204 112l78 136l178 -103l59 103z" />
    <glyph glyph-name="uFE9E" unicode="&#x62c;" horiz-adv-x="1121" arabic-form="final" 
d="M1151 1l-206.002 -0.000976562c-148.667 0 -223 65 -223 195c0 25.333 2.66699 53.333 8 84c-132.667 -12 -241 -60.333 -325 -145c-86 -86.667 -129 -196 -129 -328c0 -236.667 157 -355 471 -355c127.333 0 225.333 6.66699 294 20c30.667 6 53.667 9 69 9
c17.333 0 26 -3.66699 26 -11c0 -10.667 -23.333 -30.334 -70 -59.001c-97.333 -59.333 -163.666 -95.666 -198.999 -108.999c-51.333 -19.333 -124.333 -29 -219 -29c-296.667 0 -445 163.333 -445 490c0 211.333 76.667 392.333 230 543c-41.333 4 -69 6 -83 6
c-42 0 -86 -20.333 -132 -61c-8.66699 -8 -17 -12 -25 -12c-8.66699 0 -13 5 -13 15c0 6 2 13.333 6 22c64.667 140 142 210 232 210c36.667 0 91.167 -5.16699 163.5 -15.5s126.833 -15.5 163.5 -15.5c63.333 0 141.666 10.333 234.999 31c18 4 28.667 4.33301 32 1
s2 -14.333 -4 -33l-48 -152c-37.333 -4.66699 -90.666 -9.66699 -159.999 -15c-1.33301 -13.333 -2 -24 -2 -32c0 -47.333 38.333 -75.666 115 -84.999c10.667 -1.33301 69.334 -2 176.001 -2h62v-167zM787.998 -237.001l-76 -132l-204 112l78 136z" />
    <glyph glyph-name="uFE9F" unicode="&#x62c;" horiz-adv-x="1200" arabic-form="initial" 
d="M1200 1l-40 -0.000976562c-80.667 0 -202 -2.66699 -364 -8s-283.333 -8 -364 -8c-42.667 0 -106.5 2.66699 -191.5 8s-148.833 8 -191.5 8h-89c-33.333 0 -50 16.667 -50 50v117h140c37.333 0 93.333 -2.66699 168 -8s130.667 -8 168 -8c178.667 0 323.334 1 434.001 3
c-104.667 82.667 -169.667 132.334 -195 149.001c-82.667 52.667 -157.667 79 -225 79c-61.333 0 -120 -16.667 -176 -50c-12.667 -7.33301 -22.667 -11 -30 -11c-6 0 -9 3.33301 -9 10c0 8 4 19.333 12 34c61.333 112 150.666 168 267.999 168
c74 0 154.667 -31.667 242 -95l238 -176c86 -63.333 157 -95 213 -95h42v-167zM643 -342.001l-76 -132l-204 112l78 136z" />
    <glyph glyph-name="uFEA0" unicode="&#x62c;" horiz-adv-x="1200" arabic-form="medial" 
d="M1200 1l-40 -0.000976562c-80.667 0 -202 -2.66699 -364 -8s-283.333 -8 -364 -8c-42.667 0 -106.5 2.66699 -191.5 8s-148.833 8 -191.5 8h-89c-33.333 0 -50 16.667 -50 50v117h140c37.333 0 93.333 -2.66699 168 -8s130.667 -8 168 -8c178.667 0 323.334 1 434.001 3
c-104.667 82.667 -169.667 132.334 -195 149.001c-82.667 52.667 -157.667 79 -225 79c-61.333 0 -120 -16.667 -176 -50c-12.667 -7.33301 -22.667 -11 -30 -11c-6 0 -9 3.33301 -9 10c0 8 4 19.333 12 34c61.333 112 150.666 168 267.999 168
c74 0 154.667 -31.667 242 -95l238 -176c86 -63.333 157 -95 213 -95h42v-167zM643 -342.001l-76 -132l-204 112l78 136z" />
    <glyph glyph-name="uFEA2" unicode="&#x62d;" horiz-adv-x="1121" arabic-form="final" 
d="M1151 1l-206.002 -0.000976562c-148.667 0 -223 65 -223 195c0 25.333 2.66699 53.333 8 84c-132.667 -12 -241 -60.333 -325 -145c-86 -86.667 -129 -196 -129 -328c0 -236.667 157 -355 471 -355c127.333 0 225.333 6.66699 294 20c30.667 6 53.667 9 69 9
c17.333 0 26 -3.66699 26 -11c0 -10.667 -23.333 -30.334 -70 -59.001c-97.333 -59.333 -163.666 -95.666 -198.999 -108.999c-51.333 -19.333 -124.333 -29 -219 -29c-296.667 0 -445 163.333 -445 490c0 211.333 76.667 392.333 230 543c-41.333 4 -69 6 -83 6
c-42 0 -86 -20.333 -132 -61c-8.66699 -8 -17 -12 -25 -12c-8.66699 0 -13 5 -13 15c0 6 2 13.333 6 22c64.667 140 142 210 232 210c36.667 0 91.167 -5.16699 163.5 -15.5s126.833 -15.5 163.5 -15.5c63.333 0 141.666 10.333 234.999 31c18 4 28.667 4.33301 32 1
s2 -14.333 -4 -33l-48 -152c-37.333 -4.66699 -90.666 -9.66699 -159.999 -15c-1.33301 -13.333 -2 -24 -2 -32c0 -47.333 38.333 -75.666 115 -84.999c10.667 -1.33301 69.334 -2 176.001 -2h62v-167z" />
    <glyph glyph-name="uFEA3" unicode="&#x62d;" horiz-adv-x="1200" arabic-form="initial" 
d="M1200 1l-40 -0.000976562c-80.667 0 -202 -2.66699 -364 -8s-283.333 -8 -364 -8c-42.667 0 -106.5 2.66699 -191.5 8s-148.833 8 -191.5 8h-89c-33.333 0 -50 16.667 -50 50v117h140c37.333 0 93.333 -2.66699 168 -8s130.667 -8 168 -8c178.667 0 323.334 1 434.001 3
c-104.667 82.667 -169.667 132.334 -195 149.001c-82.667 52.667 -157.667 79 -225 79c-61.333 0 -120 -16.667 -176 -50c-12.667 -7.33301 -22.667 -11 -30 -11c-6 0 -9 3.33301 -9 10c0 8 4 19.333 12 34c61.333 112 150.666 168 267.999 168
c74 0 154.667 -31.667 242 -95l238 -176c86 -63.333 157 -95 213 -95h42v-167z" />
    <glyph glyph-name="uFEA4" unicode="&#x62d;" horiz-adv-x="1200" arabic-form="medial" 
d="M1200 1l-40 -0.000976562c-80.667 0 -202 -2.66699 -364 -8s-283.333 -8 -364 -8c-42.667 0 -106.5 2.66699 -191.5 8s-148.833 8 -191.5 8h-89c-33.333 0 -50 16.667 -50 50v117h140c37.333 0 93.333 -2.66699 168 -8s130.667 -8 168 -8c178.667 0 323.334 1 434.001 3
c-104.667 82.667 -169.667 132.334 -195 149.001c-82.667 52.667 -157.667 79 -225 79c-61.333 0 -120 -16.667 -176 -50c-12.667 -7.33301 -22.667 -11 -30 -11c-6 0 -9 3.33301 -9 10c0 8 4 19.333 12 34c61.333 112 150.666 168 267.999 168
c74 0 154.667 -31.667 242 -95l238 -176c86 -63.333 157 -95 213 -95h42v-167z" />
    <glyph glyph-name="uFEA6" unicode="&#x62e;" horiz-adv-x="1121" arabic-form="final" 
d="M1151 1l-206.002 -0.000976562c-148.667 0 -223 65 -223 195c0 25.333 2.66699 53.333 8 84c-132.667 -12 -241 -60.333 -325 -145c-86 -86.667 -129 -196 -129 -328c0 -236.667 157 -355 471 -355c127.333 0 225.333 6.66699 294 20c30.667 6 53.667 9 69 9
c17.333 0 26 -3.66699 26 -11c0 -10.667 -23.333 -30.334 -70 -59.001c-97.333 -59.333 -163.666 -95.666 -198.999 -108.999c-51.333 -19.333 -124.333 -29 -219 -29c-296.667 0 -445 163.333 -445 490c0 211.333 76.667 392.333 230 543c-41.333 4 -69 6 -83 6
c-42 0 -86 -20.333 -132 -61c-8.66699 -8 -17 -12 -25 -12c-8.66699 0 -13 5 -13 15c0 6 2 13.333 6 22c64.667 140 142 210 232 210c36.667 0 91.167 -5.16699 163.5 -15.5s126.833 -15.5 163.5 -15.5c63.333 0 141.666 10.333 234.999 31c18 4 28.667 4.33301 32 1
s2 -14.333 -4 -33l-48 -152c-37.333 -4.66699 -90.666 -9.66699 -159.999 -15c-1.33301 -13.333 -2 -24 -2 -32c0 -47.333 38.333 -75.666 115 -84.999c10.667 -1.33301 69.334 -2 176.001 -2h62v-167zM727.998 857.999l-76 -132l-204 112l78 136z" />
    <glyph glyph-name="uFEA7" unicode="&#x62e;" horiz-adv-x="1200" arabic-form="initial" 
d="M1200 1l-40 -0.000976562c-80.667 0 -202 -2.66699 -364 -8s-283.333 -8 -364 -8c-42.667 0 -106.5 2.66699 -191.5 8s-148.833 8 -191.5 8h-89c-33.333 0 -50 16.667 -50 50v117h140c37.333 0 93.333 -2.66699 168 -8s130.667 -8 168 -8c178.667 0 323.334 1 434.001 3
c-104.667 82.667 -169.667 132.334 -195 149.001c-82.667 52.667 -157.667 79 -225 79c-61.333 0 -120 -16.667 -176 -50c-12.667 -7.33301 -22.667 -11 -30 -11c-6 0 -9 3.33301 -9 10c0 8 4 19.333 12 34c61.333 112 150.666 168 267.999 168
c74 0 154.667 -31.667 242 -95l238 -176c86 -63.333 157 -95 213 -95h42v-167zM653 987.999l-76 -132l-204 112l78 136z" />
    <glyph glyph-name="uFEA8" unicode="&#x62e;" horiz-adv-x="1200" arabic-form="medial" 
d="M1200 1l-40 -0.000976562c-80.667 0 -202 -2.66699 -364 -8s-283.333 -8 -364 -8c-42.667 0 -106.5 2.66699 -191.5 8s-148.833 8 -191.5 8h-89c-33.333 0 -50 16.667 -50 50v117h140c37.333 0 93.333 -2.66699 168 -8s130.667 -8 168 -8c178.667 0 323.334 1 434.001 3
c-104.667 82.667 -169.667 132.334 -195 149.001c-82.667 52.667 -157.667 79 -225 79c-61.333 0 -120 -16.667 -176 -50c-12.667 -7.33301 -22.667 -11 -30 -11c-6 0 -9 3.33301 -9 10c0 8 4 19.333 12 34c61.333 112 150.666 168 267.999 168
c74 0 154.667 -31.667 242 -95l238 -176c86 -63.333 157 -95 213 -95h42v-167zM653 987.999l-76 -132l-204 112l78 136z" />
    <glyph glyph-name="uFEAA" unicode="&#x62f;" horiz-adv-x="828" arabic-form="final" 
d="M828 153c0 -78.667 -27.002 -131.334 -81.002 -158.001c-34 -16.667 -98 -30.334 -192 -41.001c-64.667 -7.33301 -119.334 -11 -164.001 -11c-68 0 -118 10.333 -150 31c-39.333 26 -59 71.333 -59 136c0 54 13.333 103 40 147c12.667 20.667 22.334 31 29.001 31
c8.66699 0 10.334 -15.333 5.00098 -46c-2 -11.333 -3 -22.666 -3 -33.999c0 -60 48.333 -90 145 -90c39.333 0 95 5.66699 167 17c80 12.667 132.333 26 157 40c0 64 -52.667 193.667 -158 389l85 182c6.66699 14.667 13.334 14.334 20.001 -0.999023
c47.333 -107.333 86.333 -221 117 -341c28 -109.333 42 -193 42 -251z" />
    <glyph glyph-name="uFEAC" unicode="&#x630;" horiz-adv-x="828" arabic-form="final" 
d="M828 153c0 -78.667 -27.002 -131.334 -81.002 -158.001c-34 -16.667 -98 -30.334 -192 -41.001c-64.667 -7.33301 -119.334 -11 -164.001 -11c-68 0 -118 10.333 -150 31c-39.333 26 -59 71.333 -59 136c0 54 13.333 103 40 147c12.667 20.667 22.334 31 29.001 31
c8.66699 0 10.334 -15.333 5.00098 -46c-2 -11.333 -3 -22.666 -3 -33.999c0 -60 48.333 -90 145 -90c39.333 0 95 5.66699 167 17c80 12.667 132.333 26 157 40c0 64 -52.667 193.667 -158 389l85 182c6.66699 14.667 13.334 14.334 20.001 -0.999023
c47.333 -107.333 86.333 -221 117 -341c28 -109.333 42 -193 42 -251zM632.998 1028l-76 -132l-204 112l78 136z" />
    <glyph glyph-name="uFEAE" unicode="&#x631;" horiz-adv-x="928" arabic-form="final" 
d="M927 113c0 -128.667 -46.668 -245.331 -140.001 -349.998c-110.667 -124.667 -231 -187 -361 -187c-104 0 -202.667 58 -296 174c-20.667 26 -31 44 -31 54c0 5.33301 3 8 9 8c9.33301 0 49.333 -12.5 120 -37.5s124 -37.5 160 -37.5
c106.667 0 210.334 46.667 311.001 140c87.333 81.333 131 147.666 131 198.999c0 45.333 -58.667 124.666 -176 237.999l63 138c7.33301 16.667 18 18.667 32 6c41.333 -36.667 78 -81 110 -133c45.333 -73.333 68 -144 68 -212z" />
    <glyph glyph-name="uFEB0" unicode="&#x632;" horiz-adv-x="928" arabic-form="final" 
d="M927 113c0 -128.667 -46.668 -245.331 -140.001 -349.998c-110.667 -124.667 -231 -187 -361 -187c-104 0 -202.667 58 -296 174c-20.667 26 -31 44 -31 54c0 5.33301 3 8 9 8c9.33301 0 49.333 -12.5 120 -37.5s124 -37.5 160 -37.5
c106.667 0 210.334 46.667 311.001 140c87.333 81.333 131 147.666 131 198.999c0 45.333 -58.667 124.666 -176 237.999l63 138c7.33301 16.667 18 18.667 32 6c41.333 -36.667 78 -81 110 -133c45.333 -73.333 68 -144 68 -212zM662.999 888.003l-76 -132l-204 112l78 136
z" />
    <glyph glyph-name="uFEB2" unicode="&#x633;" horiz-adv-x="1902" arabic-form="final" 
d="M1902 222c0 -102 -11.333 -164.67 -34 -188.003c-25.333 -26.667 -92 -40 -200 -40c-134.667 0 -225 19.667 -271 59c-38.667 -34.667 -113.667 -52 -225 -52c-27.333 -151.333 -62 -247 -104 -287c-35.333 -34 -97 -67.667 -185 -101
c-110.667 -42 -217.334 -63 -320.001 -63c-113.333 0 -203 24 -269 72c-75.333 54.667 -113 136.667 -113 246c0 77.333 20.667 158 62 242c30.667 62.667 62.334 110.667 95.001 144c18 18.667 31.667 28 41 28c4.66699 0 7 -2.66699 7 -8
c0 -8.66699 -5.33301 -21.667 -16 -39c-22.667 -37.333 -44.334 -83.666 -65.001 -138.999c-23.333 -62.667 -35 -113 -35 -151c0 -148.667 107 -223 321 -223c78.667 0 166.334 14.333 263.001 43c117.333 34.667 190.666 78.667 219.999 132
c0 106.667 -42 225.667 -126 357l104 152c51.333 -59.333 90 -138.666 116 -237.999h216c6 24.667 9 49.334 9 74.001c0 25.333 -3 50.666 -9 75.999c0 -4 43.333 40.667 130 134c8 -17.333 12 -44.666 12 -81.999c0 -70 -14 -132 -42 -186
c26.667 -17.333 77.334 -26 152.001 -26c61.333 0 108 5.33301 140 16c1.33301 46 -13.667 100.667 -45 164l137 136c22.667 -100.667 34 -184.667 34 -252z" />
    <glyph glyph-name="uFEB3" unicode="&#x633;" horiz-adv-x="1429" arabic-form="initial" 
d="M1428 230c0 -107.333 -9.00293 -172.335 -27.0029 -195.002c-24 -30 -90 -45 -198 -45c-114 0 -207 17.333 -279 52c-40 -17.333 -71 -28.333 -93 -33c-43.333 -8.66699 -116.666 -13 -219.999 -13c-87.333 0 -164.666 16 -231.999 48
c-47.333 -28.667 -116.333 -43 -207 -43h-212c-33.333 0 -50 16.667 -50 50v117h217c129.333 0 204 10 224 30c0 16.667 -3 54.667 -9 114l116 128c10.667 12 17.334 9.33301 20.001 -8c3.33301 -22 5 -38.667 5 -50c0 -58 -12 -123 -36 -195c16 -12.667 50.333 -19 103 -19
h361v141l109 118c8.66699 9.33301 14.667 9 18 -1c6 -17.333 9 -38.666 9 -63.999c0 -52 -12.333 -112.667 -37 -182c13.333 -13.333 62.333 -20 147 -20c77.333 0 125 6 143 18c0 28 -15 80.667 -45 158l121 120c9.33301 9.33301 16 7.33301 20 -6
c21.333 -69.333 32 -142.666 32 -219.999z" />
    <glyph glyph-name="uFEB4" unicode="&#x633;" horiz-adv-x="1429" arabic-form="medial" 
d="M1428 230c0 -107.333 -9.00293 -172.335 -27.0029 -195.002c-24 -30 -90 -45 -198 -45c-114 0 -207 17.333 -279 52c-40 -17.333 -71 -28.333 -93 -33c-43.333 -8.66699 -116.666 -13 -219.999 -13c-87.333 0 -164.666 16 -231.999 48
c-47.333 -28.667 -116.333 -43 -207 -43h-212c-33.333 0 -50 16.667 -50 50v117h217c129.333 0 204 10 224 30c0 16.667 -3 54.667 -9 114l116 128c10.667 12 17.334 9.33301 20.001 -8c3.33301 -22 5 -38.667 5 -50c0 -58 -12 -123 -36 -195c16 -12.667 50.333 -19 103 -19
h361v141l109 118c8.66699 9.33301 14.667 9 18 -1c6 -17.333 9 -38.666 9 -63.999c0 -52 -12.333 -112.667 -37 -182c13.333 -13.333 62.333 -20 147 -20c77.333 0 125 6 143 18c0 28 -15 80.667 -45 158l121 120c9.33301 9.33301 16 7.33301 20 -6
c21.333 -69.333 32 -142.666 32 -219.999z" />
    <glyph glyph-name="uFEB6" unicode="&#x634;" horiz-adv-x="1902" arabic-form="final" 
d="M1902 222c0 -102 -11.333 -164.67 -34 -188.003c-25.333 -26.667 -92 -40 -200 -40c-134.667 0 -225 19.667 -271 59c-38.667 -34.667 -113.667 -52 -225 -52c-27.333 -151.333 -62 -247 -104 -287c-35.333 -34 -97 -67.667 -185 -101
c-110.667 -42 -217.334 -63 -320.001 -63c-113.333 0 -203 24 -269 72c-75.333 54.667 -113 136.667 -113 246c0 77.333 20.667 158 62 242c30.667 62.667 62.334 110.667 95.001 144c18 18.667 31.667 28 41 28c4.66699 0 7 -2.66699 7 -8
c0 -8.66699 -5.33301 -21.667 -16 -39c-22.667 -37.333 -44.334 -83.666 -65.001 -138.999c-23.333 -62.667 -35 -113 -35 -151c0 -148.667 107 -223 321 -223c78.667 0 166.334 14.333 263.001 43c117.333 34.667 190.666 78.667 219.999 132
c0 106.667 -42 225.667 -126 357l104 152c51.333 -59.333 90 -138.666 116 -237.999h216c6 24.667 9 49.334 9 74.001c0 25.333 -3 50.666 -9 75.999c0 -4 43.333 40.667 130 134c8 -17.333 12 -44.666 12 -81.999c0 -70 -14 -132 -42 -186
c26.667 -17.333 77.334 -26 152.001 -26c61.333 0 108 5.33301 140 16c1.33301 46 -13.667 100.667 -45 164l137 136c22.667 -100.667 34 -184.667 34 -252zM1541 981.997l-76 -132l-204 112l78 136zM1742 738.997l-76 -132l-180 99l-57 -99l-204 112l78 136l178 -103
l59 103z" />
    <glyph glyph-name="uFEB7" unicode="&#x634;" horiz-adv-x="1429" arabic-form="initial" 
d="M1428 230c0 -107.333 -9.00293 -172.335 -27.0029 -195.002c-24 -30 -90 -45 -198 -45c-114 0 -207 17.333 -279 52c-40 -17.333 -71 -28.333 -93 -33c-43.333 -8.66699 -116.666 -13 -219.999 -13c-87.333 0 -164.666 16 -231.999 48
c-47.333 -28.667 -116.333 -43 -207 -43h-212c-33.333 0 -50 16.667 -50 50v117h217c129.333 0 204 10 224 30c0 16.667 -3 54.667 -9 114l116 128c10.667 12 17.334 9.33301 20.001 -8c3.33301 -22 5 -38.667 5 -50c0 -58 -12 -123 -36 -195c16 -12.667 50.333 -19 103 -19
h361v141l109 118c8.66699 9.33301 14.667 9 18 -1c6 -17.333 9 -38.666 9 -63.999c0 -52 -12.333 -112.667 -37 -182c13.333 -13.333 62.333 -20 147 -20c77.333 0 125 6 143 18c0 28 -15 80.667 -45 158l121 120c9.33301 9.33301 16 7.33301 20 -6
c21.333 -69.333 32 -142.666 32 -219.999zM1021 973.998l-76 -132l-204 112l78 136zM1222 730.998l-76 -132l-180 99l-57 -99l-204 112l78 136l178 -103l59 103z" />
    <glyph glyph-name="uFEB8" unicode="&#x634;" horiz-adv-x="1429" arabic-form="medial" 
d="M1428 230c0 -107.333 -9.00293 -172.335 -27.0029 -195.002c-24 -30 -90 -45 -198 -45c-114 0 -207 17.333 -279 52c-40 -17.333 -71 -28.333 -93 -33c-43.333 -8.66699 -116.666 -13 -219.999 -13c-87.333 0 -164.666 16 -231.999 48
c-47.333 -28.667 -116.333 -43 -207 -43h-212c-33.333 0 -50 16.667 -50 50v117h217c129.333 0 204 10 224 30c0 16.667 -3 54.667 -9 114l116 128c10.667 12 17.334 9.33301 20.001 -8c3.33301 -22 5 -38.667 5 -50c0 -58 -12 -123 -36 -195c16 -12.667 50.333 -19 103 -19
h361v141l109 118c8.66699 9.33301 14.667 9 18 -1c6 -17.333 9 -38.666 9 -63.999c0 -52 -12.333 -112.667 -37 -182c13.333 -13.333 62.333 -20 147 -20c77.333 0 125 6 143 18c0 28 -15 80.667 -45 158l121 120c9.33301 9.33301 16 7.33301 20 -6
c21.333 -69.333 32 -142.666 32 -219.999zM1021 973.998l-76 -132l-204 112l78 136zM1222 730.998l-76 -132l-180 99l-57 -99l-204 112l78 136l178 -103l59 103z" />
    <glyph glyph-name="uFEBA" unicode="&#x635;" horiz-adv-x="2280" arabic-form="final" 
d="M2278 172c0 -78.667 -11.999 -130.669 -35.999 -156.002c-17.333 -18 -55.333 -29.333 -114 -34c-22.667 -2 -92 -3.33301 -208 -4c-79.333 -0.666992 -328.666 7 -747.999 23c-27.333 -151.333 -62 -247 -104 -287c-35.333 -34 -97 -67.667 -185 -101
c-110.667 -42 -217.334 -63 -320.001 -63c-113.333 0 -203 24 -269 72c-75.333 54.667 -113 136.667 -113 246c0 77.333 20.667 158 62 242c30.667 62.667 62.334 110.667 95.001 144c18 18.667 31.667 28 41 28c4.66699 0 7 -2.66699 7 -8
c0 -8.66699 -5.33301 -21.667 -16 -39c-22.667 -37.333 -44.334 -83.666 -65.001 -138.999c-23.333 -62.667 -35 -113 -35 -151c0 -148.667 107 -223 321 -223c78.667 0 166.334 14.333 263.001 43c117.333 34.667 190.666 78.667 219.999 132
c0 106.667 -42 225.667 -126 357l104 152c51.333 -59.333 90 -138.666 116 -237.999h52c59.333 18 168.333 85 327 201c141.333 103.333 243.666 155 306.999 155c50 0 125.333 -25.333 226 -76c105.333 -53.333 164.666 -99.333 178 -138
c13.333 -38.667 20 -84.667 20 -138zM2162 197.998c0 17.333 -51.334 48 -154.001 92c-99.333 42.667 -164 64 -194 64c-51.333 0 -115.666 -24.333 -192.999 -73l-183 -115c52 -13.333 165.333 -20 340 -20c256 0 384 17.333 384 52z" />
    <glyph glyph-name="uFEBB" unicode="&#x635;" horiz-adv-x="1826" arabic-form="initial" 
d="M1821 293c12 -60 11.6641 -124.332 -1.00293 -192.999c-5.33301 -27.333 -15.333 -46.666 -30 -57.999c-26.667 -20 -80 -32 -160 -36c-107.333 -5.33301 -305.333 -8 -594 -8c-219.333 0 -390.666 6 -513.999 18c-43.333 4 -80.666 18 -111.999 42
c-61.333 -38 -141.333 -57 -240 -57h-210c-33.333 0 -50 16.667 -50 50v119h275c78 0 141 11.333 189 34c1.33301 9.33301 2 20 2 32c0 23.333 -3 51.666 -9 84.999l111 117c16.667 17.333 26.334 14.333 29.001 -9c1.33301 -12 2 -40.667 2 -86
c0 -34.667 -10 -83.334 -30 -146.001c71.333 -18 154.333 -26.333 249 -25c40 0.666992 151.833 63.167 335.5 187.5s294.5 186.5 332.5 186.5c53.333 0 133.333 -29 240 -87c113.333 -62 175 -117.333 185 -166zM1716 214.001c0 17.333 -53.333 49.667 -160 97
c-104 46 -170.667 69 -200 69c-32 0 -84.333 -22.667 -157 -68l-226 -141c142.667 -6 258.334 -9 347.001 -9c89.333 0 174.666 4.33301 255.999 13c93.333 10 140 23 140 39z" />
    <glyph glyph-name="uFEBC" unicode="&#x635;" horiz-adv-x="1826" arabic-form="medial" 
d="M1821 293c12 -60 11.6641 -124.332 -1.00293 -192.999c-5.33301 -27.333 -15.333 -46.666 -30 -57.999c-26.667 -20 -80 -32 -160 -36c-107.333 -5.33301 -305.333 -8 -594 -8c-219.333 0 -390.666 6 -513.999 18c-43.333 4 -80.666 18 -111.999 42
c-61.333 -38 -141.333 -57 -240 -57h-210c-33.333 0 -50 16.667 -50 50v119h275c78 0 141 11.333 189 34c1.33301 9.33301 2 20 2 32c0 23.333 -3 51.666 -9 84.999l111 117c16.667 17.333 26.334 14.333 29.001 -9c1.33301 -12 2 -40.667 2 -86
c0 -34.667 -10 -83.334 -30 -146.001c71.333 -18 154.333 -26.333 249 -25c40 0.666992 151.833 63.167 335.5 187.5s294.5 186.5 332.5 186.5c53.333 0 133.333 -29 240 -87c113.333 -62 175 -117.333 185 -166zM1716 214.001c0 17.333 -53.333 49.667 -160 97
c-104 46 -170.667 69 -200 69c-32 0 -84.333 -22.667 -157 -68l-226 -141c142.667 -6 258.334 -9 347.001 -9c89.333 0 174.666 4.33301 255.999 13c93.333 10 140 23 140 39z" />
    <glyph glyph-name="uFEBE" unicode="&#x636;" horiz-adv-x="2280" arabic-form="final" 
d="M2278 172c0 -78.667 -11.999 -130.669 -35.999 -156.002c-17.333 -18 -55.333 -29.333 -114 -34c-22.667 -2 -92 -3.33301 -208 -4c-79.333 -0.666992 -328.666 7 -747.999 23c-27.333 -151.333 -62 -247 -104 -287c-35.333 -34 -97 -67.667 -185 -101
c-110.667 -42 -217.334 -63 -320.001 -63c-113.333 0 -203 24 -269 72c-75.333 54.667 -113 136.667 -113 246c0 77.333 20.667 158 62 242c30.667 62.667 62.334 110.667 95.001 144c18 18.667 31.667 28 41 28c4.66699 0 7 -2.66699 7 -8
c0 -8.66699 -5.33301 -21.667 -16 -39c-22.667 -37.333 -44.334 -83.666 -65.001 -138.999c-23.333 -62.667 -35 -113 -35 -151c0 -148.667 107 -223 321 -223c78.667 0 166.334 14.333 263.001 43c117.333 34.667 190.666 78.667 219.999 132
c0 106.667 -42 225.667 -126 357l104 152c51.333 -59.333 90 -138.666 116 -237.999h52c59.333 18 168.333 85 327 201c141.333 103.333 243.666 155 306.999 155c50 0 125.333 -25.333 226 -76c105.333 -53.333 164.666 -99.333 178 -138
c13.333 -38.667 20 -84.667 20 -138zM2162 197.998c0 17.333 -51.334 48 -154.001 92c-99.333 42.667 -164 64 -194 64c-51.333 0 -115.666 -24.333 -192.999 -73l-183 -115c52 -13.333 165.333 -20 340 -20c256 0 384 17.333 384 52zM1913 902.998l-76 -132l-204 112
l78 136z" />
    <glyph glyph-name="uFEBF" unicode="&#x636;" horiz-adv-x="1826" arabic-form="initial" 
d="M1821 293c12 -60 11.6641 -124.332 -1.00293 -192.999c-5.33301 -27.333 -15.333 -46.666 -30 -57.999c-26.667 -20 -80 -32 -160 -36c-107.333 -5.33301 -305.333 -8 -594 -8c-219.333 0 -390.666 6 -513.999 18c-43.333 4 -80.666 18 -111.999 42
c-61.333 -38 -141.333 -57 -240 -57h-210c-33.333 0 -50 16.667 -50 50v119h275c78 0 141 11.333 189 34c1.33301 9.33301 2 20 2 32c0 23.333 -3 51.666 -9 84.999l111 117c16.667 17.333 26.334 14.333 29.001 -9c1.33301 -12 2 -40.667 2 -86
c0 -34.667 -10 -83.334 -30 -146.001c71.333 -18 154.333 -26.333 249 -25c40 0.666992 151.833 63.167 335.5 187.5s294.5 186.5 332.5 186.5c53.333 0 133.333 -29 240 -87c113.333 -62 175 -117.333 185 -166zM1716 214.001c0 17.333 -53.333 49.667 -160 97
c-104 46 -170.667 69 -200 69c-32 0 -84.333 -22.667 -157 -68l-226 -141c142.667 -6 258.334 -9 347.001 -9c89.333 0 174.666 4.33301 255.999 13c93.333 10 140 23 140 39zM1418 903.002l-76 -132l-204 112l78 136z" />
    </font>
</defs>
</svg>
